0
SECTION
2
HEADER
9
$INSUNITS
70
4
9
$ACADVER
1
AC1014
9
$HANDSEED
5
FFFF
0
ENDSEC
0
SECTION
2
TABLES
0
TABLE
2
VPORT
5
8
100
AcDbSymbolTable
0
ENDTAB
0
TABLE
2
LTYPE
5
5
100
AcDbSymbolTable
0
LTYPE
5
14
100
AcDbSymbolTableRecord
100
AcDbLinetypeTableRecord
2
BYBLOCK
70
0
0
LTYPE
5
15
100
AcDbSymbolTableRecord
100
AcDbLinetypeTableRecord
2
BYLAYER
70
0
0
LTYPE
5
16
100
AcDbSymbolTableRecord
100
AcDbLinetypeTableRecord
2
DASHED
70
0
3
Dashed __ __ __ __ __ __ __ __ __ __ __ __ __ _
72
65
73
2
40
0.75
49
0.5
74
0
49
-0.25
74
0
0
ENDTAB
0
TABLE
2
LAYER
5
2
100
AcDbSymbolTable
70
2
0
LAYER
5
50
100
AcDbSymbolTableRecord
100
AcDbLayerTableRecord
2
0
70
0
62
7
6
CONTINUOUS
0
ENDTAB
0
TABLE
2
STYLE
5
3
100
AcDbSymbolTable
70
1
0
STYLE
5
11
100
AcDbSymbolTableRecord
100
AcDbTextStyleTableRecord
2
STANDARD
70
0
0
ENDTAB
0
TABLE
2
VIEW
5
6
100
AcDbSymbolTable
70
0
0
ENDTAB
0
TABLE
2
UCS
5
7
100
AcDbSymbolTable
70
0
0
ENDTAB
0
TABLE
2
APPID
5
9
100
AcDbSymbolTable
70
2
0
APPID
5
12
100
AcDbSymbolTableRecord
100
AcDbRegAppTableRecord
2
ACAD
70
0
0
ENDTAB
0
TABLE
2
DIMSTYLE
5
A
100
AcDbSymbolTable
70
1
0
ENDTAB
0
TABLE
2
BLOCK_RECORD
5
1
100
AcDbSymbolTable
70
1
0
BLOCK_RECORD
5
1F
100
AcDbSymbolTableRecord
100
AcDbBlockTableRecord
2
*MODEL_SPACE
0
BLOCK_RECORD
5
1B
100
AcDbSymbolTableRecord
100
AcDbBlockTableRecord
2
*PAPER_SPACE
0
ENDTAB
0
ENDSEC
0
SECTION
2
BLOCKS
0
BLOCK
5
20
100
AcDbEntity
100
AcDbBlockBegin
2
*MODEL_SPACE
0
ENDBLK
5
21
100
AcDbEntity
100
AcDbBlockEnd
0
BLOCK
5
1C
100
AcDbEntity
100
AcDbBlockBegin
2
*PAPER_SPACE
0
ENDBLK
5
1D
100
AcDbEntity
100
AcDbBlockEnd
0
ENDSEC
0
SECTION
2
ENTITIES
0
CIRCLE
5
100
100
AcDbEntity
8
0
100
AcDbCircle
10
-3.1819805153394642
20
3.1819805153394642
30
0
40
0.99999999999999989
210
0
220
0
230
1
0
CIRCLE
5
101
100
AcDbEntity
8
0
100
AcDbCircle
10
-3.1819805153394642
20
-3.1819805153394642
30
0
40
1
210
0
220
0
230
1
0
CIRCLE
5
102
100
AcDbEntity
8
0
100
AcDbCircle
10
3.1819805153394647
20
-3.1819805153394642
30
0
40
1
210
0
220
0
230
1
0
CIRCLE
5
103
100
AcDbEntity
8
0
100
AcDbCircle
10
3.1819805153394642
20
3.1819805153394642
30
0
40
1
210
0
220
0
230
1
0
CIRCLE
5
104
100
AcDbEntity
8
0
100
AcDbCircle
10
0
20
0
30
0
40
2.4999999999999996
210
0
220
0
230
1
0
LWPOLYLINE
5
105
100
AcDbEntity
8
0
100
AcDbPolyline
90
9
70
1
43
0.0
10
-5.1819805153394638
20
-3.1819805153394642
42
0.1743638257688658
10
-4.723818850068068
20
-4.4558465010543333
42
-0.17436382576886592
10
-2.4999999999999996
20
-10.638919870615284
10
-2.4999999999999996
20
-14.58595214581482
42
-0.48499923421430635
10
-3.7333333333346141
20
-15.558348955541161
42
-0.54987842565380196
10
-12.484235480134235
20
10.007190638572535
42
-0.46415308669184802
10
-10.957225203223715
20
10.046851041285079
10
-5.4352349559297792
20
3.847090359634231
42
-0.18394368802289079
10
-5.1819805153394638
20
3.1819805420056935
0
ARC
5
106
100
AcDbEntity
8
0
100
AcDbCircle
10
3.1819805153394647
20
-3.1819805153394642
30
0
40
2.0000000000000009
210
-0
220
0
230
1
100
AcDbArc
50
-39.563498822961876
51
0
0
LWPOLYLINE
5
107
100
AcDbEntity
8
0
100
AcDbPolyline
90
4
70
1
43
0.0
10
-0.99999999999999978
20
-7.3000000000000007
10
0.99999999999999978
20
-7.3000000000000007
42
0.99999999999999989
10
0.99999999999999989
20
-4.3000000000000007
10
-0.99999999999999967
20
-4.2999999999999998
42
0.99999999999999989
0
LINE
5
108
100
AcDbEntity
8
0
100
AcDbLine
10
2.49999999999772
20
-10.638919870615284
30
0
11
2.5
21
-14.58595214581482
31
0
0
ARC
5
109
100
AcDbEntity
8
0
100
AcDbCircle
10
12.207572757089896
20
-10.638919870615283
30
0
40
9.7075727570921764
210
0
220
0
230
1
100
AcDbArc
50
140.43650117703808
51
180
0
LWPOLYLINE
5
110
100
AcDbEntity
8
0
100
AcDbPolyline
90
8
70
1
43
0.0
10
-8.7169885250311001
20
12.042180494202704
10
-2.6502606947561267
20
5.2308210053213671
42
0.21396732622146533
10
-1.9035149788483743
20
4.8959308229472454
10
1.903517143153044
20
4.8959314187542358
42
0.2139672520523383
10
2.6502606080793711
20
5.2308207451570574
10
8.7169884078521935
20
12.042180601817947
42
0.46415308104352065
10
8.5015923508725688
20
13.554443090720657
42
0.28765869181909798
10
-8.5015924966609617
20
13.554442999279537
42
0.46415308668283811
0
LINE
5
111
100
AcDbEntity
8
0
100
AcDbLine
10
5.1819805153394665
20
-3.1819805153394642
30
0
11
5.1819805153394638
21
3.1819804152629101
31
0
0
LINE
5
112
100
AcDbEntity
8
0
100
AcDbLine
10
5.4352349364271006
20
3.8470902109872385
30
0
11
10.957225144579708
21
10.046851214619817
31
0
0
ARC
5
113
100
AcDbEntity
8
0
100
AcDbCircle
10
6.1819805153268597
20
3.1819804152629105
30
0
40
0.99999999998739664
210
0
220
0
230
1
100
AcDbArc
50
138.30925082695782
51
180
0
ARC
5
114
100
AcDbEntity
8
0
100
AcDbCircle
10
0
20
0
30
0
40
16
210
-0
220
0
230
1
100
AcDbArc
50
-76.50660109336016
51
38.715181595003259
0
ARC
5
115
100
AcDbEntity
8
0
100
AcDbCircle
10
11.703970723488879
20
9.3817414188871027
30
0
40
1.0000000000000062
210
0
220
-0
230
1
100
AcDbArc
50
38.715181595003038
51
138.30925082695768
0
ARC
5
116
100
AcDbEntity
8
0
100
AcDbCircle
10
3.5000000000000004
20
-14.58595214581482
30
0
40
1.0000000000000004
210
0
220
0
230
1
100
AcDbArc
50
180
51
283.49340018296186
0
ENDSEC
0
SECTION
2
OBJECTS
0
DICTIONARY
5
C
100
AcDbDictionary
3
ACAD_GROUP
350
D
3
ACAD_MLINESTYLE
350
17
0
DICTIONARY
5
D
100
AcDbDictionary
0
DICTIONARY
5
1A
330
C
100
AcDbDictionary
0
DICTIONARY
5
17
100
AcDbDictionary
0
ENDSEC
0
EOF
