%TF.GenerationSoftware,KiCad,Pcbnew,9.0.1*%
%TF.CreationDate,2025-07-10T18:56:07-03:00*%
%TF.ProjectId,main_MagicAlonso-rounded,6d61696e-5f4d-4616-9769-63416c6f6e73,rev?*%
%TF.SameCoordinates,PXb76920PY11322920*%
%TF.FileFunction,Legend,Top*%
%TF.FilePolarity,Positive*%
%FSLAX46Y46*%
G04 Gerber Fmt 4.6, Leading zero omitted, Abs format (unit mm)*
G04 Created by KiCad (PCBNEW 9.0.1) date 2025-07-10 18:56:07*
%MOMM*%
%LPD*%
G01*
G04 APERTURE LIST*
%ADD10C,0.150000*%
%ADD11C,0.120000*%
%ADD12C,0.100000*%
%ADD13C,0.200000*%
%ADD14C,0.127000*%
G04 APERTURE END LIST*
D10*
X92457381Y95748991D02*
X92790714Y95748991D01*
X92933571Y95225181D02*
X92457381Y95225181D01*
X92457381Y95225181D02*
X92457381Y96225181D01*
X92457381Y96225181D02*
X92933571Y96225181D01*
X93314524Y95272800D02*
X93457381Y95225181D01*
X93457381Y95225181D02*
X93695476Y95225181D01*
X93695476Y95225181D02*
X93790714Y95272800D01*
X93790714Y95272800D02*
X93838333Y95320420D01*
X93838333Y95320420D02*
X93885952Y95415658D01*
X93885952Y95415658D02*
X93885952Y95510896D01*
X93885952Y95510896D02*
X93838333Y95606134D01*
X93838333Y95606134D02*
X93790714Y95653753D01*
X93790714Y95653753D02*
X93695476Y95701372D01*
X93695476Y95701372D02*
X93505000Y95748991D01*
X93505000Y95748991D02*
X93409762Y95796610D01*
X93409762Y95796610D02*
X93362143Y95844229D01*
X93362143Y95844229D02*
X93314524Y95939467D01*
X93314524Y95939467D02*
X93314524Y96034705D01*
X93314524Y96034705D02*
X93362143Y96129943D01*
X93362143Y96129943D02*
X93409762Y96177562D01*
X93409762Y96177562D02*
X93505000Y96225181D01*
X93505000Y96225181D02*
X93743095Y96225181D01*
X93743095Y96225181D02*
X93885952Y96177562D01*
X94885952Y95320420D02*
X94838333Y95272800D01*
X94838333Y95272800D02*
X94695476Y95225181D01*
X94695476Y95225181D02*
X94600238Y95225181D01*
X94600238Y95225181D02*
X94457381Y95272800D01*
X94457381Y95272800D02*
X94362143Y95368039D01*
X94362143Y95368039D02*
X94314524Y95463277D01*
X94314524Y95463277D02*
X94266905Y95653753D01*
X94266905Y95653753D02*
X94266905Y95796610D01*
X94266905Y95796610D02*
X94314524Y95987086D01*
X94314524Y95987086D02*
X94362143Y96082324D01*
X94362143Y96082324D02*
X94457381Y96177562D01*
X94457381Y96177562D02*
X94600238Y96225181D01*
X94600238Y96225181D02*
X94695476Y96225181D01*
X94695476Y96225181D02*
X94838333Y96177562D01*
X94838333Y96177562D02*
X94885952Y96129943D01*
X95076429Y95129943D02*
X95838333Y95129943D01*
X95981191Y96225181D02*
X96600238Y96225181D01*
X96600238Y96225181D02*
X96266905Y95844229D01*
X96266905Y95844229D02*
X96409762Y95844229D01*
X96409762Y95844229D02*
X96505000Y95796610D01*
X96505000Y95796610D02*
X96552619Y95748991D01*
X96552619Y95748991D02*
X96600238Y95653753D01*
X96600238Y95653753D02*
X96600238Y95415658D01*
X96600238Y95415658D02*
X96552619Y95320420D01*
X96552619Y95320420D02*
X96505000Y95272800D01*
X96505000Y95272800D02*
X96409762Y95225181D01*
X96409762Y95225181D02*
X96124048Y95225181D01*
X96124048Y95225181D02*
X96028810Y95272800D01*
X96028810Y95272800D02*
X95981191Y95320420D01*
X114094700Y54278572D02*
X114094700Y55421429D01*
X114666128Y54850001D02*
X113523271Y54850001D01*
X122176428Y151712296D02*
X122633571Y151712296D01*
X122404999Y151712296D02*
X122404999Y150912296D01*
X122404999Y150912296D02*
X122481190Y151026581D01*
X122481190Y151026581D02*
X122557380Y151102772D01*
X122557380Y151102772D02*
X122633571Y151140867D01*
X75441905Y55995181D02*
X75441905Y56995181D01*
X75441905Y56995181D02*
X75680000Y56995181D01*
X75680000Y56995181D02*
X75822857Y56947562D01*
X75822857Y56947562D02*
X75918095Y56852324D01*
X75918095Y56852324D02*
X75965714Y56757086D01*
X75965714Y56757086D02*
X76013333Y56566610D01*
X76013333Y56566610D02*
X76013333Y56423753D01*
X76013333Y56423753D02*
X75965714Y56233277D01*
X75965714Y56233277D02*
X75918095Y56138039D01*
X75918095Y56138039D02*
X75822857Y56042800D01*
X75822857Y56042800D02*
X75680000Y55995181D01*
X75680000Y55995181D02*
X75441905Y55995181D01*
X76965714Y55995181D02*
X76394286Y55995181D01*
X76680000Y55995181D02*
X76680000Y56995181D01*
X76680000Y56995181D02*
X76584762Y56852324D01*
X76584762Y56852324D02*
X76489524Y56757086D01*
X76489524Y56757086D02*
X76394286Y56709467D01*
X74311428Y151692296D02*
X74768571Y151692296D01*
X74539999Y151692296D02*
X74539999Y150892296D01*
X74539999Y150892296D02*
X74616190Y151006581D01*
X74616190Y151006581D02*
X74692380Y151082772D01*
X74692380Y151082772D02*
X74768571Y151120867D01*
X122234048Y135311134D02*
X122995953Y135311134D01*
X122615000Y134930181D02*
X122615000Y135692086D01*
X59193094Y135790896D02*
X59669284Y135790896D01*
X59097856Y135505181D02*
X59431189Y136505181D01*
X59431189Y136505181D02*
X59764522Y135505181D01*
X60097856Y136171848D02*
X60097856Y135505181D01*
X60097856Y136076610D02*
X60145475Y136124229D01*
X60145475Y136124229D02*
X60240713Y136171848D01*
X60240713Y136171848D02*
X60383570Y136171848D01*
X60383570Y136171848D02*
X60478808Y136124229D01*
X60478808Y136124229D02*
X60526427Y136028991D01*
X60526427Y136028991D02*
X60526427Y135505181D01*
X60859761Y136171848D02*
X61240713Y136171848D01*
X61002618Y136505181D02*
X61002618Y135648039D01*
X61002618Y135648039D02*
X61050237Y135552800D01*
X61050237Y135552800D02*
X61145475Y135505181D01*
X61145475Y135505181D02*
X61240713Y135505181D01*
X61954999Y135552800D02*
X61859761Y135505181D01*
X61859761Y135505181D02*
X61669285Y135505181D01*
X61669285Y135505181D02*
X61574047Y135552800D01*
X61574047Y135552800D02*
X61526428Y135648039D01*
X61526428Y135648039D02*
X61526428Y136028991D01*
X61526428Y136028991D02*
X61574047Y136124229D01*
X61574047Y136124229D02*
X61669285Y136171848D01*
X61669285Y136171848D02*
X61859761Y136171848D01*
X61859761Y136171848D02*
X61954999Y136124229D01*
X61954999Y136124229D02*
X62002618Y136028991D01*
X62002618Y136028991D02*
X62002618Y135933753D01*
X62002618Y135933753D02*
X61526428Y135838515D01*
X62431190Y136171848D02*
X62431190Y135505181D01*
X62431190Y136076610D02*
X62478809Y136124229D01*
X62478809Y136124229D02*
X62574047Y136171848D01*
X62574047Y136171848D02*
X62716904Y136171848D01*
X62716904Y136171848D02*
X62812142Y136124229D01*
X62812142Y136124229D02*
X62859761Y136028991D01*
X62859761Y136028991D02*
X62859761Y135505181D01*
X63335952Y136171848D02*
X63335952Y135505181D01*
X63335952Y136076610D02*
X63383571Y136124229D01*
X63383571Y136124229D02*
X63478809Y136171848D01*
X63478809Y136171848D02*
X63621666Y136171848D01*
X63621666Y136171848D02*
X63716904Y136124229D01*
X63716904Y136124229D02*
X63764523Y136028991D01*
X63764523Y136028991D02*
X63764523Y135505181D01*
X64669285Y135505181D02*
X64669285Y136028991D01*
X64669285Y136028991D02*
X64621666Y136124229D01*
X64621666Y136124229D02*
X64526428Y136171848D01*
X64526428Y136171848D02*
X64335952Y136171848D01*
X64335952Y136171848D02*
X64240714Y136124229D01*
X64669285Y135552800D02*
X64574047Y135505181D01*
X64574047Y135505181D02*
X64335952Y135505181D01*
X64335952Y135505181D02*
X64240714Y135552800D01*
X64240714Y135552800D02*
X64193095Y135648039D01*
X64193095Y135648039D02*
X64193095Y135743277D01*
X64193095Y135743277D02*
X64240714Y135838515D01*
X64240714Y135838515D02*
X64335952Y135886134D01*
X64335952Y135886134D02*
X64574047Y135886134D01*
X64574047Y135886134D02*
X64669285Y135933753D01*
X65859762Y135790896D02*
X66335952Y135790896D01*
X65764524Y135505181D02*
X66097857Y136505181D01*
X66097857Y136505181D02*
X66431190Y135505181D01*
X66764524Y135505181D02*
X66764524Y136171848D01*
X66764524Y135981372D02*
X66812143Y136076610D01*
X66812143Y136076610D02*
X66859762Y136124229D01*
X66859762Y136124229D02*
X66955000Y136171848D01*
X66955000Y136171848D02*
X67050238Y136171848D01*
X67764524Y135552800D02*
X67669286Y135505181D01*
X67669286Y135505181D02*
X67478810Y135505181D01*
X67478810Y135505181D02*
X67383572Y135552800D01*
X67383572Y135552800D02*
X67335953Y135648039D01*
X67335953Y135648039D02*
X67335953Y136028991D01*
X67335953Y136028991D02*
X67383572Y136124229D01*
X67383572Y136124229D02*
X67478810Y136171848D01*
X67478810Y136171848D02*
X67669286Y136171848D01*
X67669286Y136171848D02*
X67764524Y136124229D01*
X67764524Y136124229D02*
X67812143Y136028991D01*
X67812143Y136028991D02*
X67812143Y135933753D01*
X67812143Y135933753D02*
X67335953Y135838515D01*
X68669286Y135505181D02*
X68669286Y136028991D01*
X68669286Y136028991D02*
X68621667Y136124229D01*
X68621667Y136124229D02*
X68526429Y136171848D01*
X68526429Y136171848D02*
X68335953Y136171848D01*
X68335953Y136171848D02*
X68240715Y136124229D01*
X68669286Y135552800D02*
X68574048Y135505181D01*
X68574048Y135505181D02*
X68335953Y135505181D01*
X68335953Y135505181D02*
X68240715Y135552800D01*
X68240715Y135552800D02*
X68193096Y135648039D01*
X68193096Y135648039D02*
X68193096Y135743277D01*
X68193096Y135743277D02*
X68240715Y135838515D01*
X68240715Y135838515D02*
X68335953Y135886134D01*
X68335953Y135886134D02*
X68574048Y135886134D01*
X68574048Y135886134D02*
X68669286Y135933753D01*
X106656666Y159925181D02*
X106656666Y159210896D01*
X106656666Y159210896D02*
X106609047Y159068039D01*
X106609047Y159068039D02*
X106513809Y158972800D01*
X106513809Y158972800D02*
X106370952Y158925181D01*
X106370952Y158925181D02*
X106275714Y158925181D01*
X107180476Y158925181D02*
X107370952Y158925181D01*
X107370952Y158925181D02*
X107466190Y158972800D01*
X107466190Y158972800D02*
X107513809Y159020420D01*
X107513809Y159020420D02*
X107609047Y159163277D01*
X107609047Y159163277D02*
X107656666Y159353753D01*
X107656666Y159353753D02*
X107656666Y159734705D01*
X107656666Y159734705D02*
X107609047Y159829943D01*
X107609047Y159829943D02*
X107561428Y159877562D01*
X107561428Y159877562D02*
X107466190Y159925181D01*
X107466190Y159925181D02*
X107275714Y159925181D01*
X107275714Y159925181D02*
X107180476Y159877562D01*
X107180476Y159877562D02*
X107132857Y159829943D01*
X107132857Y159829943D02*
X107085238Y159734705D01*
X107085238Y159734705D02*
X107085238Y159496610D01*
X107085238Y159496610D02*
X107132857Y159401372D01*
X107132857Y159401372D02*
X107180476Y159353753D01*
X107180476Y159353753D02*
X107275714Y159306134D01*
X107275714Y159306134D02*
X107466190Y159306134D01*
X107466190Y159306134D02*
X107561428Y159353753D01*
X107561428Y159353753D02*
X107609047Y159401372D01*
X107609047Y159401372D02*
X107656666Y159496610D01*
X82262200Y53986668D02*
X82309819Y54129525D01*
X82309819Y54129525D02*
X82309819Y54367620D01*
X82309819Y54367620D02*
X82262200Y54462858D01*
X82262200Y54462858D02*
X82214580Y54510477D01*
X82214580Y54510477D02*
X82119342Y54558096D01*
X82119342Y54558096D02*
X82024104Y54558096D01*
X82024104Y54558096D02*
X81928866Y54510477D01*
X81928866Y54510477D02*
X81881247Y54462858D01*
X81881247Y54462858D02*
X81833628Y54367620D01*
X81833628Y54367620D02*
X81786009Y54177144D01*
X81786009Y54177144D02*
X81738390Y54081906D01*
X81738390Y54081906D02*
X81690771Y54034287D01*
X81690771Y54034287D02*
X81595533Y53986668D01*
X81595533Y53986668D02*
X81500295Y53986668D01*
X81500295Y53986668D02*
X81405057Y54034287D01*
X81405057Y54034287D02*
X81357438Y54081906D01*
X81357438Y54081906D02*
X81309819Y54177144D01*
X81309819Y54177144D02*
X81309819Y54415239D01*
X81309819Y54415239D02*
X81357438Y54558096D01*
X81309819Y54891430D02*
X82309819Y55129525D01*
X82309819Y55129525D02*
X81595533Y55320001D01*
X81595533Y55320001D02*
X82309819Y55510477D01*
X82309819Y55510477D02*
X81309819Y55748572D01*
X82309819Y56653334D02*
X82309819Y56081906D01*
X82309819Y56367620D02*
X81309819Y56367620D01*
X81309819Y56367620D02*
X81452676Y56272382D01*
X81452676Y56272382D02*
X81547914Y56177144D01*
X81547914Y56177144D02*
X81595533Y56081906D01*
X133259819Y109186906D02*
X132259819Y109186906D01*
X132259819Y109186906D02*
X132259819Y109425001D01*
X132259819Y109425001D02*
X132307438Y109567858D01*
X132307438Y109567858D02*
X132402676Y109663096D01*
X132402676Y109663096D02*
X132497914Y109710715D01*
X132497914Y109710715D02*
X132688390Y109758334D01*
X132688390Y109758334D02*
X132831247Y109758334D01*
X132831247Y109758334D02*
X133021723Y109710715D01*
X133021723Y109710715D02*
X133116961Y109663096D01*
X133116961Y109663096D02*
X133212200Y109567858D01*
X133212200Y109567858D02*
X133259819Y109425001D01*
X133259819Y109425001D02*
X133259819Y109186906D01*
X132259819Y110091668D02*
X132259819Y110758334D01*
X132259819Y110758334D02*
X133259819Y110329763D01*
X111971666Y107895181D02*
X111971666Y107180896D01*
X111971666Y107180896D02*
X111924047Y107038039D01*
X111924047Y107038039D02*
X111828809Y106942800D01*
X111828809Y106942800D02*
X111685952Y106895181D01*
X111685952Y106895181D02*
X111590714Y106895181D01*
X112924047Y107895181D02*
X112447857Y107895181D01*
X112447857Y107895181D02*
X112400238Y107418991D01*
X112400238Y107418991D02*
X112447857Y107466610D01*
X112447857Y107466610D02*
X112543095Y107514229D01*
X112543095Y107514229D02*
X112781190Y107514229D01*
X112781190Y107514229D02*
X112876428Y107466610D01*
X112876428Y107466610D02*
X112924047Y107418991D01*
X112924047Y107418991D02*
X112971666Y107323753D01*
X112971666Y107323753D02*
X112971666Y107085658D01*
X112971666Y107085658D02*
X112924047Y106990420D01*
X112924047Y106990420D02*
X112876428Y106942800D01*
X112876428Y106942800D02*
X112781190Y106895181D01*
X112781190Y106895181D02*
X112543095Y106895181D01*
X112543095Y106895181D02*
X112447857Y106942800D01*
X112447857Y106942800D02*
X112400238Y106990420D01*
D11*
%TO.C,ESC_3*%
X89135000Y96680000D02*
X89135000Y104520000D01*
X97705000Y104520000D02*
X89135000Y104520000D01*
X99875000Y104520000D02*
X98305000Y104520000D01*
X99875000Y104000000D02*
X89135000Y104000000D01*
X99875000Y102900000D02*
X89135000Y102900000D01*
X99875000Y96680000D02*
X89135000Y96680000D01*
X99875000Y96680000D02*
X99875000Y104520000D01*
X98005000Y104520000D02*
X97565000Y105130000D01*
X98445000Y105130000D01*
X98005000Y104520000D01*
G36*
X98005000Y104520000D02*
G01*
X97565000Y105130000D01*
X98445000Y105130000D01*
X98005000Y104520000D01*
G37*
%TO.C,Rp2*%
X61127500Y59677064D02*
X61127500Y59222936D01*
X62597500Y59677064D02*
X62597500Y59222936D01*
%TO.C,J2*%
X114130000Y127980000D02*
X115460000Y127980000D01*
X114130000Y126650000D02*
X114130000Y127980000D01*
X116730000Y127980000D02*
X124410000Y127980000D01*
X116730000Y125320000D02*
X116730000Y127980000D01*
X116730000Y125320000D02*
X124410000Y125320000D01*
X124410000Y125320000D02*
X124410000Y127980000D01*
X114130000Y125320000D02*
X134630000Y125320000D01*
X134630000Y141320000D01*
X114130000Y141320000D01*
X114130000Y125320000D01*
D12*
X117880000Y139070000D02*
G75*
G02*
X114880000Y139070000I-1500000J0D01*
G01*
X114880000Y139070000D02*
G75*
G02*
X117880000Y139070000I1500000J0D01*
G01*
X133880000Y139070000D02*
G75*
G02*
X130880000Y139070000I-1500000J0D01*
G01*
X130880000Y139070000D02*
G75*
G02*
X133880000Y139070000I1500000J0D01*
G01*
D11*
%TO.C,Rp1*%
X63064500Y59677064D02*
X63064500Y59222936D01*
X64534500Y59677064D02*
X64534500Y59222936D01*
%TO.C,J1*%
X116170000Y61060000D02*
X116170000Y52340000D01*
X117470000Y62760000D02*
X116170000Y61060000D01*
X120290000Y62760000D02*
X117470000Y62760000D01*
X120290000Y62760000D02*
X121590000Y61060000D01*
X121590000Y61060000D02*
X121590000Y52340000D01*
X121590000Y52340000D02*
X116170000Y52340000D01*
%TO.C,C20*%
X69938748Y57175000D02*
X70461252Y57175000D01*
X69938748Y55705000D02*
X70461252Y55705000D01*
%TO.C,C17*%
X56623752Y52935000D02*
X56101248Y52935000D01*
X56623752Y51465000D02*
X56101248Y51465000D01*
%TO.C,C24*%
X76843748Y153410000D02*
X77366252Y153410000D01*
X76843748Y151940000D02*
X77366252Y151940000D01*
%TO.C,R10*%
X123317742Y52135000D02*
X123792258Y52135000D01*
X123317742Y51090000D02*
X123792258Y51090000D01*
%TO.C,J13*%
X127790000Y54635000D02*
X127790000Y56045000D01*
X128610000Y58715000D02*
X128610000Y58565000D01*
X129410000Y58715000D02*
X128610000Y58715000D01*
X136950000Y54635000D02*
X136950000Y56045000D01*
%TO.C,C26*%
X125393748Y152310000D02*
X125916252Y152310000D01*
X125393748Y150840000D02*
X125916252Y150840000D01*
%TO.C,Q1*%
X116755000Y148260000D02*
X116105000Y148260000D01*
X116755000Y148260000D02*
X117405000Y148260000D01*
X116755000Y145140000D02*
X116105000Y145140000D01*
X116755000Y145140000D02*
X117405000Y145140000D01*
X115592500Y148210000D02*
X115352500Y148540000D01*
X115832500Y148540000D01*
X115592500Y148210000D01*
G36*
X115592500Y148210000D02*
G01*
X115352500Y148540000D01*
X115832500Y148540000D01*
X115592500Y148210000D01*
G37*
%TO.C,C10*%
X95291252Y64735000D02*
X94768748Y64735000D01*
X95291252Y63265000D02*
X94768748Y63265000D01*
%TO.C,RV1*%
X65487500Y63020000D02*
X65487500Y61640000D01*
X65487500Y63020000D02*
X70727500Y63020000D01*
X65487500Y59160000D02*
X65487500Y57780000D01*
X65487500Y57780000D02*
X70727500Y57780000D01*
X70727500Y63020000D02*
X70727500Y62439000D01*
X70727500Y60660000D02*
X70727500Y60140000D01*
X70727500Y58360000D02*
X70727500Y57780000D01*
%TO.C,C8*%
X77670000Y113865580D02*
X77670000Y113584420D01*
X78690000Y113865580D02*
X78690000Y113584420D01*
%TO.C,D5*%
X114905000Y155250000D02*
X114905000Y150200000D01*
X115355000Y155700000D02*
X114905000Y155250000D01*
X115705000Y153850000D02*
X115705000Y152050000D01*
X121105000Y153850000D02*
X121105000Y152050000D01*
X121905000Y155700000D02*
X115355000Y155700000D01*
X121905000Y150200000D02*
X114905000Y150200000D01*
X121905000Y150200000D02*
X121905000Y155700000D01*
%TO.C,R7*%
X125422936Y149045000D02*
X125877064Y149045000D01*
X125422936Y147575000D02*
X125877064Y147575000D01*
%TO.C,D1*%
X74630000Y59860000D02*
X74630000Y54350000D01*
X77930000Y59860000D02*
X74630000Y59860000D01*
X77930000Y59860000D02*
X77930000Y54350000D01*
%TO.C,D6*%
X122130000Y61760000D02*
X122130000Y56250000D01*
X125430000Y61760000D02*
X122130000Y61760000D01*
X125430000Y61760000D02*
X125430000Y56250000D01*
%TO.C,D3*%
X67040000Y155230000D02*
X67040000Y150180000D01*
X67490000Y155680000D02*
X67040000Y155230000D01*
X67840000Y153830000D02*
X67840000Y152030000D01*
X73240000Y153830000D02*
X73240000Y152030000D01*
X74040000Y155680000D02*
X67490000Y155680000D01*
X74040000Y150180000D02*
X67040000Y150180000D01*
X74040000Y150180000D02*
X74040000Y155680000D01*
%TO.C,C4*%
X52691252Y135170000D02*
X52168748Y135170000D01*
X52691252Y133700000D02*
X52168748Y133700000D01*
%TO.C,J15*%
X83050000Y50640000D02*
X83050000Y58480000D01*
X102120000Y58480000D02*
X83050000Y58480000D01*
X104290000Y58480000D02*
X102720000Y58480000D01*
X104290000Y57960000D02*
X83050000Y57960000D01*
X104290000Y56860000D02*
X83050000Y56860000D01*
X104290000Y50640000D02*
X83050000Y50640000D01*
X104290000Y50640000D02*
X104290000Y58480000D01*
X102420000Y58480000D02*
X101980000Y59090000D01*
X102860000Y59090000D01*
X102420000Y58480000D01*
G36*
X102420000Y58480000D02*
G01*
X101980000Y59090000D01*
X102860000Y59090000D01*
X102420000Y58480000D01*
G37*
%TO.C,C18*%
X56703080Y54435000D02*
X56421920Y54435000D01*
X56703080Y53415000D02*
X56421920Y53415000D01*
%TO.C,SW3*%
D13*
X65040000Y108200000D02*
X56040000Y108200000D01*
X56040000Y112200000D01*
X65040000Y112200000D01*
X65040000Y108200000D01*
D11*
%TO.C,C14*%
X126414420Y117385000D02*
X126695580Y117385000D01*
X126414420Y116365000D02*
X126695580Y116365000D01*
%TO.C,C13*%
X126493748Y115835000D02*
X127016252Y115835000D01*
X126493748Y114365000D02*
X127016252Y114365000D01*
%TO.C,R9*%
X58502936Y141560000D02*
X58957064Y141560000D01*
X58502936Y140090000D02*
X58957064Y140090000D01*
%TO.C,U4*%
X116905000Y124030000D02*
X114955000Y124030000D01*
X116905000Y124030000D02*
X118855000Y124030000D01*
X116905000Y113910000D02*
X114955000Y113910000D01*
X116905000Y113910000D02*
X118855000Y113910000D01*
X119845000Y113635000D02*
X119365000Y113635000D01*
X119605000Y113965000D01*
X119845000Y113635000D01*
G36*
X119845000Y113635000D02*
G01*
X119365000Y113635000D01*
X119605000Y113965000D01*
X119845000Y113635000D01*
G37*
%TO.C,J16*%
X133920000Y121010000D02*
X133920000Y118950000D01*
X133920000Y115350000D02*
X133330000Y115350000D01*
X133920000Y113290000D02*
X133920000Y115350000D01*
X135630000Y121010000D02*
X133920000Y121010000D01*
X135630000Y113290000D02*
X133920000Y113290000D01*
X139740000Y121010000D02*
X138130000Y121010000D01*
X139740000Y113290000D02*
X138130000Y113290000D01*
X139740000Y113290000D02*
X139740000Y121010000D01*
%TO.C,BZ1*%
X124905000Y137925000D02*
G75*
G02*
X112705000Y137925000I-6100000J0D01*
G01*
X112705000Y137925000D02*
G75*
G02*
X124905000Y137925000I6100000J0D01*
G01*
%TO.C,L1*%
X60907500Y57857500D02*
X62907500Y57857500D01*
X60907500Y55857500D02*
X60907500Y57857500D01*
X61287500Y57477500D02*
X61287500Y55707500D01*
X61287500Y57477500D02*
X67527500Y57477500D01*
X61287500Y53007500D02*
X61287500Y51237500D01*
X61287500Y51237500D02*
X67527500Y51237500D01*
X67527500Y57477500D02*
X67527500Y55707500D01*
X67527500Y53007500D02*
X67527500Y51237500D01*
%TO.C,U1*%
X54955000Y138960000D02*
X54955000Y132210000D01*
X54955000Y138960000D02*
X72955000Y138960000D01*
X54955000Y114210000D02*
X54955000Y113460000D01*
X54955000Y113460000D02*
X55705000Y113460000D01*
X55705000Y113460000D02*
X57455000Y113460000D01*
X72205000Y113460000D02*
X70455000Y113460000D01*
X72955000Y138960000D02*
X72955000Y132210000D01*
X72955000Y133020000D02*
X54955000Y133020000D01*
X72955000Y114210000D02*
X72955000Y113460000D01*
X72955000Y113460000D02*
X72205000Y113460000D01*
%TO.C,C9*%
X102466252Y64785000D02*
X101943748Y64785000D01*
X102466252Y63315000D02*
X101943748Y63315000D01*
%TO.C,R1*%
X81592742Y63960180D02*
X82067258Y63960180D01*
X81592742Y62915180D02*
X82067258Y62915180D01*
%TO.C,C2*%
X106295000Y64960000D02*
X106295000Y62610000D01*
X106295000Y58140000D02*
X106295000Y60490000D01*
X112050563Y64960000D02*
X106295000Y64960000D01*
X112050563Y58140000D02*
X106295000Y58140000D01*
X113115000Y63895563D02*
X112050563Y64960000D01*
X113115000Y63895563D02*
X113115000Y62610000D01*
X113115000Y59204437D02*
X112050563Y58140000D01*
X113115000Y59204437D02*
X113115000Y60490000D01*
X113748750Y59308750D02*
X113748750Y60096250D01*
X114142500Y59702500D02*
X113355000Y59702500D01*
%TO.C,C11*%
X79770000Y149163748D02*
X79770000Y149686252D01*
X81240000Y149163748D02*
X81240000Y149686252D01*
D10*
%TO.C,U6*%
X50280000Y61655000D02*
X50280000Y50585000D01*
X67780000Y50585000D02*
X50280000Y50585000D01*
D11*
%TO.C,C12*%
X82370000Y149163748D02*
X82370000Y149686252D01*
X83840000Y149163748D02*
X83840000Y149686252D01*
D13*
%TO.C,REF\u002A\u002A*%
X109800000Y104820738D02*
X109800000Y101820738D01*
X109800000Y104820738D02*
X111041619Y104838492D01*
X109800000Y101820738D02*
X109800000Y68620738D01*
X109800000Y68620738D02*
X109800000Y65620738D01*
X109800000Y65620738D02*
X111043136Y65603099D01*
X111980203Y104881136D02*
X111041619Y104838492D01*
X111980203Y104881136D02*
X113480209Y104976022D01*
X111981628Y65560699D02*
X111043136Y65603099D01*
X111981628Y65560699D02*
X113480718Y65466286D01*
X114573903Y65362479D02*
X113480718Y65466286D01*
X114574556Y105080191D02*
X113480209Y104976022D01*
X117524260Y64962190D02*
X116292573Y65160806D01*
X117527867Y105481196D02*
X116295124Y105282372D01*
X120828015Y64246391D02*
X119450668Y64591554D01*
X120832338Y106196839D02*
X119455298Y105851934D01*
X124529531Y107360799D02*
X122987255Y106818259D01*
X124529544Y63080672D02*
X122984598Y63624203D01*
X127559308Y63114126D02*
X134000000Y65620738D01*
X134000000Y104820738D02*
X127559308Y107327350D01*
X134000000Y65620738D02*
X134000000Y104820738D01*
X124529531Y107360799D02*
G75*
G02*
X127559308Y107327350I1470471J-4040031D01*
G01*
X127559308Y63114126D02*
G75*
G02*
X124529544Y63080672I-1559306J4006536D01*
G01*
X127625000Y103320738D02*
G75*
G02*
X124375000Y103320738I-1625000J0D01*
G01*
X124375000Y103320738D02*
G75*
G02*
X127625000Y103320738I1625000J0D01*
G01*
X127625000Y67120738D02*
G75*
G02*
X124375000Y67120738I-1625000J0D01*
G01*
X124375000Y67120738D02*
G75*
G02*
X127625000Y67120738I1625000J0D01*
G01*
X127625000Y67120738D02*
G75*
G02*
X124375000Y67120738I-1625000J0D01*
G01*
X124375000Y67120738D02*
G75*
G02*
X127625000Y67120738I1625000J0D01*
G01*
X114573903Y65362479D02*
X114607876Y65358992D01*
X114641893Y65355481D01*
X114675865Y65351954D01*
X114709881Y65348402D01*
X114743853Y65344835D01*
X114777868Y65341242D01*
X114811839Y65337635D01*
X114845853Y65334003D01*
X114879824Y65330355D01*
X114913838Y65326682D01*
X114947809Y65322994D01*
X114981822Y65319281D01*
X115015793Y65315553D01*
X115049806Y65311800D01*
X115083777Y65308031D01*
X115117790Y65304237D01*
X115151761Y65300428D01*
X115185774Y65296594D01*
X115219746Y65292745D01*
X115253759Y65288870D01*
X115287731Y65284980D01*
X115321744Y65281066D01*
X115355717Y65277135D01*
X115389731Y65273180D01*
X115423704Y65269209D01*
X115457718Y65265214D01*
X115491693Y65261203D01*
X115525708Y65257166D01*
X115559683Y65253115D01*
X115593699Y65249038D01*
X115627675Y65244946D01*
X115661692Y65240829D01*
X115695669Y65236696D01*
X115729687Y65232539D01*
X115763666Y65228365D01*
X115797684Y65224167D01*
X115831664Y65219954D01*
X115865684Y65215715D01*
X115899666Y65211460D01*
X115933687Y65207181D01*
X115967670Y65202886D01*
X116001692Y65198566D01*
X116035677Y65194231D01*
X116069701Y65189870D01*
X116103688Y65185494D01*
X116137713Y65181093D01*
X116171702Y65176676D01*
X116205729Y65172234D01*
X116239719Y65167777D01*
X116273748Y65163295D01*
X116292573Y65160806D01*
X114574556Y105080191D02*
X114608597Y105083692D01*
X114642682Y105087218D01*
X114676722Y105090759D01*
X114710807Y105094325D01*
X114744847Y105097906D01*
X114778931Y105101513D01*
X114812971Y105105134D01*
X114847054Y105108781D01*
X114881095Y105112443D01*
X114915178Y105116130D01*
X114949218Y105119832D01*
X114983302Y105123560D01*
X115017342Y105127302D01*
X115051426Y105131070D01*
X115085467Y105134853D01*
X115119550Y105138661D01*
X115153592Y105142485D01*
X115187675Y105146333D01*
X115221717Y105150197D01*
X115255801Y105154086D01*
X115289844Y105157990D01*
X115323929Y105161919D01*
X115357973Y105165864D01*
X115392057Y105169834D01*
X115426102Y105173819D01*
X115460188Y105177829D01*
X115494233Y105181855D01*
X115528320Y105185906D01*
X115562367Y105189972D01*
X115596454Y105194063D01*
X115630502Y105198170D01*
X115664590Y105202301D01*
X115698639Y105206448D01*
X115732728Y105210621D01*
X115766779Y105214808D01*
X115800869Y105219021D01*
X115834921Y105223249D01*
X115869013Y105227503D01*
X115903067Y105231772D01*
X115937159Y105236066D01*
X115971214Y105240375D01*
X116005308Y105244709D01*
X116039365Y105249059D01*
X116073461Y105253435D01*
X116107519Y105257825D01*
X116141616Y105262241D01*
X116175677Y105266672D01*
X116209775Y105271129D01*
X116243837Y105275601D01*
X116277938Y105280098D01*
X116295124Y105282372D01*
X117524260Y64962190D02*
X117554896Y64956925D01*
X117585561Y64951634D01*
X117616197Y64946328D01*
X117646862Y64940997D01*
X117677499Y64935650D01*
X117708164Y64930278D01*
X117738802Y64924890D01*
X117769467Y64919477D01*
X117800106Y64914049D01*
X117830773Y64908595D01*
X117861413Y64903126D01*
X117892081Y64897631D01*
X117922723Y64892121D01*
X117953392Y64886585D01*
X117984036Y64881034D01*
X118014708Y64875457D01*
X118045354Y64869864D01*
X118076027Y64864246D01*
X118106676Y64858613D01*
X118137352Y64852954D01*
X118168003Y64847279D01*
X118198682Y64841578D01*
X118229336Y64835862D01*
X118260018Y64830120D01*
X118290676Y64824363D01*
X118321361Y64818579D01*
X118352022Y64812780D01*
X118382710Y64806956D01*
X118413376Y64801115D01*
X118444068Y64795249D01*
X118474737Y64789367D01*
X118505433Y64783459D01*
X118536107Y64777536D01*
X118566807Y64771586D01*
X118597485Y64765621D01*
X118628190Y64759630D01*
X118658873Y64753623D01*
X118689583Y64747590D01*
X118720271Y64741541D01*
X118750985Y64735467D01*
X118781678Y64729376D01*
X118812398Y64723259D01*
X118843097Y64717127D01*
X118873822Y64710968D01*
X118904527Y64704793D01*
X118935258Y64698593D01*
X118965969Y64692376D01*
X118996706Y64686133D01*
X119027422Y64679874D01*
X119058165Y64673590D01*
X119088889Y64667289D01*
X119119638Y64660962D01*
X119150368Y64654618D01*
X119181124Y64648249D01*
X119211861Y64641863D01*
X119242623Y64635452D01*
X119273367Y64629024D01*
X119304137Y64622570D01*
X119334888Y64616099D01*
X119365665Y64609603D01*
X119396424Y64603090D01*
X119427208Y64596551D01*
X119450668Y64591554D01*
X117527867Y105481196D02*
X117558555Y105486470D01*
X117589271Y105491770D01*
X117619959Y105497085D01*
X117650675Y105502425D01*
X117681363Y105507780D01*
X117712078Y105513161D01*
X117742767Y105518557D01*
X117773482Y105523979D01*
X117804171Y105529416D01*
X117834887Y105534878D01*
X117865576Y105540356D01*
X117896293Y105545859D01*
X117926984Y105551378D01*
X117957701Y105556922D01*
X117988393Y105562482D01*
X118019112Y105568067D01*
X118049806Y105573667D01*
X118080526Y105579294D01*
X118111222Y105584935D01*
X118141944Y105590602D01*
X118172642Y105596285D01*
X118203366Y105601994D01*
X118234066Y105607718D01*
X118264793Y105613467D01*
X118295496Y105619232D01*
X118326225Y105625023D01*
X118356931Y105630830D01*
X118387663Y105636662D01*
X118418372Y105642510D01*
X118449108Y105648383D01*
X118479820Y105654273D01*
X118510559Y105660188D01*
X118541274Y105666119D01*
X118572017Y105672075D01*
X118602737Y105678048D01*
X118633483Y105684046D01*
X118664207Y105690060D01*
X118694958Y105696100D01*
X118725686Y105702155D01*
X118756441Y105708237D01*
X118787174Y105714334D01*
X118817933Y105720457D01*
X118848671Y105726597D01*
X118879435Y105732762D01*
X118910178Y105738943D01*
X118940947Y105745150D01*
X118971695Y105751373D01*
X119002469Y105757622D01*
X119033223Y105763887D01*
X119064003Y105770178D01*
X119094762Y105776485D01*
X119125548Y105782818D01*
X119156313Y105789167D01*
X119187105Y105795542D01*
X119217876Y105801933D01*
X119248674Y105808350D01*
X119279452Y105814784D01*
X119310255Y105821244D01*
X119341040Y105827720D01*
X119371850Y105834221D01*
X119402641Y105840740D01*
X119433458Y105847284D01*
X119455298Y105851934D01*
X120828015Y64246391D02*
X120857458Y64238629D01*
X120886925Y64230839D01*
X120916397Y64223027D01*
X120945894Y64215189D01*
X120975397Y64207328D01*
X121004924Y64199440D01*
X121034457Y64191529D01*
X121064014Y64183591D01*
X121093577Y64175631D01*
X121123164Y64167644D01*
X121152758Y64159634D01*
X121182376Y64151597D01*
X121212001Y64143537D01*
X121241649Y64135450D01*
X121271304Y64127341D01*
X121300983Y64119204D01*
X121330669Y64111045D01*
X121360379Y64102858D01*
X121390096Y64094648D01*
X121419837Y64086412D01*
X121449585Y64078152D01*
X121479357Y64069865D01*
X121509137Y64061555D01*
X121538940Y64053218D01*
X121568751Y64044858D01*
X121598585Y64036470D01*
X121628428Y64028060D01*
X121658294Y64019621D01*
X121688168Y64011160D01*
X121718065Y64002672D01*
X121747971Y63994160D01*
X121777900Y63985621D01*
X121807838Y63977058D01*
X121837799Y63968468D01*
X121867768Y63959855D01*
X121897762Y63951214D01*
X121927763Y63942550D01*
X121957788Y63933858D01*
X121987822Y63925143D01*
X122017880Y63916400D01*
X122047946Y63907634D01*
X122078036Y63898840D01*
X122108134Y63890023D01*
X122138257Y63881178D01*
X122168388Y63872309D01*
X122198543Y63863413D01*
X122228707Y63854493D01*
X122258894Y63845545D01*
X122289091Y63836573D01*
X122319311Y63827574D01*
X122349541Y63818551D01*
X122379795Y63809500D01*
X122410057Y63800425D01*
X122440344Y63791323D01*
X122470640Y63782196D01*
X122500959Y63773042D01*
X122531289Y63763863D01*
X122561642Y63754657D01*
X122592004Y63745427D01*
X122622391Y63736168D01*
X122652787Y63726886D01*
X122683207Y63717576D01*
X122713637Y63708241D01*
X122744091Y63698878D01*
X122774554Y63689492D01*
X122805042Y63680077D01*
X122835539Y63670638D01*
X122866061Y63661170D01*
X122896592Y63651679D01*
X122927148Y63642159D01*
X122984598Y63624203D01*
X120832338Y106196839D02*
X120861778Y106204597D01*
X120891242Y106212381D01*
X120920711Y106220188D01*
X120950203Y106228021D01*
X120979701Y106235877D01*
X121009223Y106243760D01*
X121038750Y106251665D01*
X121068301Y106259597D01*
X121097858Y106267551D01*
X121127438Y106275533D01*
X121157025Y106283536D01*
X121186634Y106291567D01*
X121216250Y106299620D01*
X121245889Y106307701D01*
X121275535Y106315804D01*
X121305204Y106323933D01*
X121334879Y106332086D01*
X121364578Y106340266D01*
X121394284Y106348468D01*
X121424013Y106356697D01*
X121453748Y106364950D01*
X121483507Y106373229D01*
X121513273Y106381531D01*
X121543062Y106389860D01*
X121572858Y106398212D01*
X121602678Y106406592D01*
X121632504Y106414994D01*
X121662354Y106423424D01*
X121692212Y106431876D01*
X121722092Y106440356D01*
X121751980Y106448859D01*
X121781891Y106457389D01*
X121811810Y106465942D01*
X121841752Y106474523D01*
X121871702Y106483126D01*
X121901675Y106491758D01*
X121931656Y106500412D01*
X121961660Y106509094D01*
X121991672Y106517799D01*
X122021708Y106526531D01*
X122051751Y106535287D01*
X122081818Y106544070D01*
X122111892Y106552877D01*
X122141990Y106561711D01*
X122172097Y106570569D01*
X122202226Y106579454D01*
X122232364Y106588363D01*
X122262526Y106597299D01*
X122292696Y106606259D01*
X122322889Y106615246D01*
X122353090Y106624257D01*
X122383315Y106633296D01*
X122413549Y106642359D01*
X122443806Y106651449D01*
X122474072Y106660563D01*
X122504361Y106669704D01*
X122534659Y106678870D01*
X122564981Y106688063D01*
X122595311Y106697280D01*
X122625665Y106706525D01*
X122656028Y106715794D01*
X122686414Y106725090D01*
X122716810Y106734411D01*
X122747229Y106743760D01*
X122777657Y106753132D01*
X122808109Y106762532D01*
X122838570Y106771957D01*
X122869054Y106781410D01*
X122899548Y106790886D01*
X122930066Y106800391D01*
X122987255Y106818259D01*
D11*
%TO.C,C23*%
X50660000Y57539420D02*
X50660000Y57820580D01*
X51680000Y57539420D02*
X51680000Y57820580D01*
%TO.C,R11*%
X123317742Y53847500D02*
X123792258Y53847500D01*
X123317742Y52802500D02*
X123792258Y52802500D01*
%TO.C,R17*%
X54242936Y61595000D02*
X54697064Y61595000D01*
X54242936Y60125000D02*
X54697064Y60125000D01*
%TO.C,C28*%
X106070000Y57560000D02*
X106070000Y55210000D01*
X106070000Y50740000D02*
X106070000Y53090000D01*
X111825563Y57560000D02*
X106070000Y57560000D01*
X111825563Y50740000D02*
X106070000Y50740000D01*
X112890000Y56495563D02*
X111825563Y57560000D01*
X112890000Y56495563D02*
X112890000Y55210000D01*
X112890000Y51804437D02*
X111825563Y50740000D01*
X112890000Y51804437D02*
X112890000Y53090000D01*
X113523750Y51908750D02*
X113523750Y52696250D01*
X113917500Y52302500D02*
X113130000Y52302500D01*
%TO.C,J14*%
X127025000Y135810000D02*
X127025000Y134390000D01*
X127025000Y134390000D02*
X131525000Y134390000D01*
X127025000Y124610000D02*
X131525000Y124610000D01*
X127025000Y123190000D02*
X127025000Y124610000D01*
X127335000Y126050000D02*
X127935000Y125750000D01*
X127335000Y125450000D02*
X127335000Y126050000D01*
X127935000Y125750000D02*
X127335000Y125450000D01*
X131525000Y134390000D02*
X131525000Y129500000D01*
X131525000Y124610000D02*
X131525000Y129500000D01*
X132635000Y133500000D02*
X132635000Y133000000D01*
X132635000Y133000000D02*
X138135000Y133000000D01*
X132635000Y131000000D02*
X132635000Y130500000D01*
X132635000Y130500000D02*
X138135000Y130500000D01*
X132635000Y128500000D02*
X132635000Y128000000D01*
X132635000Y128000000D02*
X138135000Y128000000D01*
X132635000Y126000000D02*
X132635000Y125500000D01*
X132635000Y125500000D02*
X138135000Y125500000D01*
X138135000Y133500000D02*
X132635000Y133500000D01*
X138135000Y133000000D02*
X138135000Y133500000D01*
X138135000Y131000000D02*
X132635000Y131000000D01*
X138135000Y130500000D02*
X138135000Y131000000D01*
X138135000Y128500000D02*
X132635000Y128500000D01*
X138135000Y128000000D02*
X138135000Y128500000D01*
X138135000Y126000000D02*
X132635000Y126000000D01*
X138135000Y125500000D02*
X138135000Y126000000D01*
X138745000Y135810000D02*
X127025000Y135810000D01*
X138745000Y129500000D02*
X138745000Y135810000D01*
X138745000Y129500000D02*
X138745000Y123190000D01*
X138745000Y123190000D02*
X127025000Y123190000D01*
%TO.C,J9*%
X80680000Y163740000D02*
X80680000Y152020000D01*
X80680000Y152020000D02*
X82100000Y152020000D01*
X82100000Y156520000D02*
X94490000Y156520000D01*
X82100000Y152020000D02*
X82100000Y156520000D01*
X82990000Y163130000D02*
X82990000Y157630000D01*
X82990000Y157630000D02*
X83490000Y157630000D01*
X83490000Y163130000D02*
X82990000Y163130000D01*
X83490000Y157630000D02*
X83490000Y163130000D01*
X85490000Y163130000D02*
X85490000Y157630000D01*
X85490000Y157630000D02*
X85990000Y157630000D01*
X85990000Y163130000D02*
X85490000Y163130000D01*
X85990000Y157630000D02*
X85990000Y163130000D01*
X87990000Y163130000D02*
X87990000Y157630000D01*
X87990000Y157630000D02*
X88490000Y157630000D01*
X88490000Y163130000D02*
X87990000Y163130000D01*
X88490000Y157630000D02*
X88490000Y163130000D01*
X90490000Y163130000D02*
X90490000Y157630000D01*
X90490000Y157630000D02*
X90990000Y157630000D01*
X90990000Y163130000D02*
X90490000Y163130000D01*
X90990000Y157630000D02*
X90990000Y163130000D01*
X92990000Y163130000D02*
X92990000Y157630000D01*
X92990000Y157630000D02*
X93490000Y157630000D01*
X93490000Y163130000D02*
X92990000Y163130000D01*
X93490000Y157630000D02*
X93490000Y163130000D01*
X94490000Y163740000D02*
X80680000Y163740000D01*
X94490000Y163740000D02*
X108300000Y163740000D01*
X95490000Y163130000D02*
X95490000Y157630000D01*
X95490000Y157630000D02*
X95990000Y157630000D01*
X95990000Y163130000D02*
X95490000Y163130000D01*
X95990000Y157630000D02*
X95990000Y163130000D01*
X97990000Y163130000D02*
X97990000Y157630000D01*
X97990000Y157630000D02*
X98490000Y157630000D01*
X98490000Y163130000D02*
X97990000Y163130000D01*
X98490000Y157630000D02*
X98490000Y163130000D01*
X100490000Y163130000D02*
X100490000Y157630000D01*
X100490000Y157630000D02*
X100990000Y157630000D01*
X100990000Y163130000D02*
X100490000Y163130000D01*
X100990000Y157630000D02*
X100990000Y163130000D01*
X102990000Y163130000D02*
X102990000Y157630000D01*
X102990000Y157630000D02*
X103490000Y157630000D01*
X103490000Y163130000D02*
X102990000Y163130000D01*
X103490000Y157630000D02*
X103490000Y163130000D01*
X105440000Y152330000D02*
X105740000Y152930000D01*
X105490000Y163130000D02*
X105490000Y157630000D01*
X105490000Y157630000D02*
X105990000Y157630000D01*
X105740000Y152930000D02*
X106040000Y152330000D01*
X105990000Y163130000D02*
X105490000Y163130000D01*
X105990000Y157630000D02*
X105990000Y163130000D01*
X106040000Y152330000D02*
X105440000Y152330000D01*
X106880000Y156520000D02*
X94490000Y156520000D01*
X106880000Y152020000D02*
X106880000Y156520000D01*
X108300000Y163740000D02*
X108300000Y152020000D01*
X108300000Y152020000D02*
X106880000Y152020000D01*
%TO.C,R2*%
X74392742Y142797500D02*
X74867258Y142797500D01*
X74392742Y141752500D02*
X74867258Y141752500D01*
%TO.C,R14*%
X59414564Y60510000D02*
X58960436Y60510000D01*
X59414564Y59040000D02*
X58960436Y59040000D01*
%TO.C,R15*%
X52227500Y57917258D02*
X52227500Y57442742D01*
X53272500Y57917258D02*
X53272500Y57442742D01*
%TO.C,F1*%
X53842223Y145430529D02*
X52455971Y143029471D01*
X56804029Y143720529D02*
X55417777Y141319471D01*
%TO.C,J11*%
X90677500Y93575000D02*
X92097500Y93575000D01*
X90677500Y81855000D02*
X90677500Y93575000D01*
X92097500Y93575000D02*
X92097500Y89075000D01*
X92097500Y89075000D02*
X94487500Y89075000D01*
X92937500Y93265000D02*
X93537500Y93265000D01*
X92987500Y87965000D02*
X92987500Y82465000D01*
X92987500Y82465000D02*
X93487500Y82465000D01*
X93237500Y92665000D02*
X92937500Y93265000D01*
X93487500Y87965000D02*
X92987500Y87965000D01*
X93487500Y82465000D02*
X93487500Y87965000D01*
X93537500Y93265000D02*
X93237500Y92665000D01*
X94487500Y81855000D02*
X90677500Y81855000D01*
X94487500Y81855000D02*
X98297500Y81855000D01*
X95487500Y87965000D02*
X95487500Y82465000D01*
X95487500Y82465000D02*
X95987500Y82465000D01*
X95987500Y87965000D02*
X95487500Y87965000D01*
X95987500Y82465000D02*
X95987500Y87965000D01*
X96877500Y93575000D02*
X96877500Y89075000D01*
X96877500Y89075000D02*
X94487500Y89075000D01*
X98297500Y93575000D02*
X96877500Y93575000D01*
X98297500Y81855000D02*
X98297500Y93575000D01*
%TO.C,R4*%
X130227936Y141860000D02*
X131682064Y141860000D01*
X130227936Y140040000D02*
X131682064Y140040000D01*
D13*
%TO.C,REF\u002A\u002A*%
X54980000Y104824998D02*
X54980000Y65624998D01*
X54980000Y65624998D02*
X61420692Y63118386D01*
X61420692Y107331610D02*
X54980000Y104824998D01*
X64450456Y107365064D02*
X65995402Y106821533D01*
X64450469Y63084937D02*
X65992745Y63627477D01*
X68147662Y64248897D02*
X69524702Y64593802D01*
X68151985Y106199345D02*
X69529332Y105854182D01*
X71452133Y64964540D02*
X72684876Y65163364D01*
X71455740Y105483546D02*
X72687427Y105284930D01*
X74405444Y65365545D02*
X75499791Y65469714D01*
X74406097Y105083257D02*
X75499282Y104979450D01*
X76998372Y104885037D02*
X75499282Y104979450D01*
X76998372Y104885037D02*
X77936864Y104842637D01*
X76999797Y65564600D02*
X75499791Y65469714D01*
X76999797Y65564600D02*
X77938381Y65607244D01*
X79180000Y104824998D02*
X77936864Y104842637D01*
X79180000Y101824998D02*
X79180000Y104824998D01*
X79180000Y68624998D02*
X79180000Y101824998D01*
X79180000Y65624998D02*
X77938381Y65607244D01*
X79180000Y65624998D02*
X79180000Y68624998D01*
X61420692Y107331610D02*
G75*
G02*
X64450456Y107365064I1559306J-4006536D01*
G01*
X64450469Y63084937D02*
G75*
G02*
X61420692Y63118386I-1470471J4040031D01*
G01*
X64605000Y103324998D02*
G75*
G02*
X61355000Y103324998I-1625000J0D01*
G01*
X61355000Y103324998D02*
G75*
G02*
X64605000Y103324998I1625000J0D01*
G01*
X64605000Y103324998D02*
G75*
G02*
X61355000Y103324998I-1625000J0D01*
G01*
X61355000Y103324998D02*
G75*
G02*
X64605000Y103324998I1625000J0D01*
G01*
X64605000Y67124998D02*
G75*
G02*
X61355000Y67124998I-1625000J0D01*
G01*
X61355000Y67124998D02*
G75*
G02*
X64605000Y67124998I1625000J0D01*
G01*
X68147662Y64248897D02*
X68118222Y64241139D01*
X68088758Y64233355D01*
X68059289Y64225548D01*
X68029797Y64217715D01*
X68000299Y64209859D01*
X67970777Y64201976D01*
X67941250Y64194071D01*
X67911699Y64186139D01*
X67882142Y64178185D01*
X67852562Y64170203D01*
X67822975Y64162200D01*
X67793366Y64154169D01*
X67763750Y64146116D01*
X67734111Y64138035D01*
X67704465Y64129932D01*
X67674796Y64121803D01*
X67645121Y64113650D01*
X67615422Y64105470D01*
X67585716Y64097268D01*
X67555987Y64089039D01*
X67526252Y64080786D01*
X67496493Y64072507D01*
X67466727Y64064205D01*
X67436938Y64055876D01*
X67407142Y64047524D01*
X67377322Y64039144D01*
X67347496Y64030742D01*
X67317646Y64022312D01*
X67287788Y64013860D01*
X67257908Y64005380D01*
X67228020Y63996877D01*
X67198109Y63988347D01*
X67168190Y63979794D01*
X67138248Y63971213D01*
X67108298Y63962610D01*
X67078325Y63953978D01*
X67048344Y63945324D01*
X67018340Y63936642D01*
X66988328Y63927937D01*
X66958292Y63919205D01*
X66928249Y63910449D01*
X66898182Y63901666D01*
X66868108Y63892859D01*
X66838010Y63884025D01*
X66807903Y63875167D01*
X66777774Y63866282D01*
X66747636Y63857373D01*
X66717474Y63848437D01*
X66687304Y63839477D01*
X66657111Y63830490D01*
X66626910Y63821479D01*
X66596685Y63812440D01*
X66566451Y63803377D01*
X66536194Y63794287D01*
X66505928Y63785173D01*
X66475639Y63776032D01*
X66445341Y63766866D01*
X66415019Y63757673D01*
X66384689Y63748456D01*
X66354335Y63739211D01*
X66323972Y63729942D01*
X66293586Y63720646D01*
X66263190Y63711325D01*
X66232771Y63701976D01*
X66202343Y63692604D01*
X66171891Y63683204D01*
X66141430Y63673779D01*
X66110946Y63664326D01*
X66080452Y63654850D01*
X66049934Y63645345D01*
X65992745Y63627477D01*
X68151985Y106199345D02*
X68122542Y106207107D01*
X68093075Y106214897D01*
X68063603Y106222709D01*
X68034106Y106230547D01*
X68004603Y106238408D01*
X67975076Y106246296D01*
X67945543Y106254207D01*
X67915986Y106262145D01*
X67886423Y106270105D01*
X67856836Y106278092D01*
X67827242Y106286102D01*
X67797624Y106294139D01*
X67767999Y106302199D01*
X67738351Y106310286D01*
X67708696Y106318395D01*
X67679017Y106326532D01*
X67649331Y106334691D01*
X67619621Y106342878D01*
X67589904Y106351088D01*
X67560163Y106359324D01*
X67530415Y106367584D01*
X67500643Y106375871D01*
X67470863Y106384181D01*
X67441060Y106392518D01*
X67411249Y106400878D01*
X67381415Y106409266D01*
X67351572Y106417676D01*
X67321706Y106426115D01*
X67291832Y106434576D01*
X67261935Y106443064D01*
X67232029Y106451576D01*
X67202100Y106460115D01*
X67172162Y106468678D01*
X67142201Y106477268D01*
X67112232Y106485881D01*
X67082238Y106494522D01*
X67052237Y106503186D01*
X67022212Y106511878D01*
X66992178Y106520593D01*
X66962120Y106529336D01*
X66932054Y106538102D01*
X66901964Y106546896D01*
X66871866Y106555713D01*
X66841743Y106564558D01*
X66811612Y106573427D01*
X66781457Y106582323D01*
X66751293Y106591243D01*
X66721106Y106600191D01*
X66690909Y106609163D01*
X66660689Y106618162D01*
X66630459Y106627185D01*
X66600205Y106636236D01*
X66569943Y106645311D01*
X66539656Y106654413D01*
X66509360Y106663540D01*
X66479041Y106672694D01*
X66448711Y106681873D01*
X66418358Y106691079D01*
X66387996Y106700309D01*
X66357609Y106709568D01*
X66327213Y106718850D01*
X66296793Y106728160D01*
X66266363Y106737495D01*
X66235909Y106746858D01*
X66205446Y106756244D01*
X66174958Y106765659D01*
X66144461Y106775098D01*
X66113939Y106784566D01*
X66083408Y106794057D01*
X66052852Y106803577D01*
X65995402Y106821533D01*
X71452133Y64964540D02*
X71421445Y64959266D01*
X71390729Y64953966D01*
X71360041Y64948651D01*
X71329325Y64943311D01*
X71298637Y64937956D01*
X71267922Y64932575D01*
X71237233Y64927179D01*
X71206518Y64921757D01*
X71175829Y64916320D01*
X71145113Y64910858D01*
X71114424Y64905380D01*
X71083707Y64899877D01*
X71053016Y64894358D01*
X71022299Y64888814D01*
X70991607Y64883254D01*
X70960888Y64877669D01*
X70930194Y64872069D01*
X70899474Y64866442D01*
X70868778Y64860801D01*
X70838056Y64855134D01*
X70807358Y64849451D01*
X70776634Y64843742D01*
X70745934Y64838018D01*
X70715207Y64832269D01*
X70684504Y64826504D01*
X70653775Y64820713D01*
X70623069Y64814906D01*
X70592337Y64809074D01*
X70561628Y64803226D01*
X70530892Y64797353D01*
X70500180Y64791463D01*
X70469441Y64785548D01*
X70438726Y64779617D01*
X70407983Y64773661D01*
X70377263Y64767688D01*
X70346517Y64761690D01*
X70315793Y64755676D01*
X70285042Y64749636D01*
X70254314Y64743581D01*
X70223559Y64737499D01*
X70192826Y64731402D01*
X70162067Y64725279D01*
X70131329Y64719139D01*
X70100565Y64712974D01*
X70069822Y64706793D01*
X70039053Y64700586D01*
X70008305Y64694363D01*
X69977531Y64688114D01*
X69946777Y64681849D01*
X69915997Y64675558D01*
X69885238Y64669251D01*
X69854452Y64662918D01*
X69823687Y64656569D01*
X69792895Y64650194D01*
X69762124Y64643803D01*
X69731326Y64637386D01*
X69700548Y64630952D01*
X69669745Y64624492D01*
X69638960Y64618016D01*
X69608150Y64611515D01*
X69577359Y64604996D01*
X69546542Y64598452D01*
X69524702Y64593802D01*
X71455740Y105483546D02*
X71425104Y105488811D01*
X71394439Y105494102D01*
X71363803Y105499408D01*
X71333138Y105504739D01*
X71302501Y105510086D01*
X71271836Y105515458D01*
X71241198Y105520846D01*
X71210533Y105526259D01*
X71179894Y105531687D01*
X71149227Y105537141D01*
X71118587Y105542610D01*
X71087919Y105548105D01*
X71057277Y105553615D01*
X71026608Y105559151D01*
X70995964Y105564702D01*
X70965292Y105570279D01*
X70934646Y105575872D01*
X70903973Y105581490D01*
X70873324Y105587123D01*
X70842648Y105592782D01*
X70811997Y105598457D01*
X70781318Y105604158D01*
X70750664Y105609874D01*
X70719982Y105615616D01*
X70689324Y105621373D01*
X70658639Y105627157D01*
X70627978Y105632956D01*
X70597290Y105638780D01*
X70566624Y105644621D01*
X70535932Y105650487D01*
X70505263Y105656369D01*
X70474567Y105662277D01*
X70443893Y105668200D01*
X70413193Y105674150D01*
X70382515Y105680115D01*
X70351810Y105686106D01*
X70321127Y105692113D01*
X70290417Y105698146D01*
X70259729Y105704195D01*
X70229015Y105710269D01*
X70198322Y105716360D01*
X70167602Y105722477D01*
X70136903Y105728609D01*
X70106178Y105734768D01*
X70075473Y105740943D01*
X70044742Y105747143D01*
X70014031Y105753360D01*
X69983294Y105759603D01*
X69952578Y105765862D01*
X69921835Y105772146D01*
X69891111Y105778447D01*
X69860362Y105784774D01*
X69829632Y105791118D01*
X69798876Y105797487D01*
X69768139Y105803873D01*
X69737377Y105810284D01*
X69706633Y105816712D01*
X69675863Y105823166D01*
X69645112Y105829637D01*
X69614335Y105836133D01*
X69583576Y105842646D01*
X69552792Y105849185D01*
X69529332Y105854182D01*
X74405444Y65365545D02*
X74371403Y65362044D01*
X74337318Y65358518D01*
X74303278Y65354977D01*
X74269193Y65351411D01*
X74235153Y65347830D01*
X74201069Y65344223D01*
X74167029Y65340602D01*
X74132946Y65336955D01*
X74098905Y65333293D01*
X74064822Y65329606D01*
X74030782Y65325904D01*
X73996698Y65322176D01*
X73962658Y65318434D01*
X73928574Y65314666D01*
X73894533Y65310883D01*
X73860450Y65307075D01*
X73826408Y65303251D01*
X73792325Y65299403D01*
X73758283Y65295539D01*
X73724199Y65291650D01*
X73690156Y65287746D01*
X73656071Y65283817D01*
X73622027Y65279872D01*
X73587943Y65275902D01*
X73553898Y65271917D01*
X73519812Y65267907D01*
X73485767Y65263881D01*
X73451680Y65259830D01*
X73417633Y65255764D01*
X73383546Y65251673D01*
X73349498Y65247566D01*
X73315410Y65243435D01*
X73281361Y65239288D01*
X73247272Y65235115D01*
X73213221Y65230928D01*
X73179131Y65226715D01*
X73145079Y65222487D01*
X73110987Y65218233D01*
X73076933Y65213964D01*
X73042841Y65209670D01*
X73008786Y65205361D01*
X72974692Y65201027D01*
X72940635Y65196677D01*
X72906539Y65192301D01*
X72872481Y65187911D01*
X72838384Y65183495D01*
X72804323Y65179064D01*
X72770225Y65174607D01*
X72736163Y65170135D01*
X72702062Y65165638D01*
X72684876Y65163364D01*
X74406097Y105083257D02*
X74372124Y105086744D01*
X74338107Y105090255D01*
X74304135Y105093782D01*
X74270119Y105097334D01*
X74236147Y105100901D01*
X74202132Y105104494D01*
X74168161Y105108101D01*
X74134147Y105111733D01*
X74100176Y105115381D01*
X74066162Y105119054D01*
X74032191Y105122742D01*
X73998178Y105126455D01*
X73964207Y105130183D01*
X73930194Y105133936D01*
X73896223Y105137705D01*
X73862210Y105141499D01*
X73828239Y105145308D01*
X73794226Y105149142D01*
X73760254Y105152991D01*
X73726241Y105156866D01*
X73692269Y105160756D01*
X73658256Y105164670D01*
X73624283Y105168601D01*
X73590269Y105172556D01*
X73556296Y105176527D01*
X73522282Y105180522D01*
X73488307Y105184533D01*
X73454292Y105188570D01*
X73420317Y105192621D01*
X73386301Y105196698D01*
X73352325Y105200790D01*
X73318308Y105204907D01*
X73284331Y105209040D01*
X73250313Y105213197D01*
X73216334Y105217371D01*
X73182316Y105221569D01*
X73148336Y105225782D01*
X73114316Y105230021D01*
X73080334Y105234276D01*
X73046313Y105238555D01*
X73012330Y105242850D01*
X72978308Y105247170D01*
X72944323Y105251505D01*
X72910299Y105255866D01*
X72876312Y105260242D01*
X72842287Y105264643D01*
X72808298Y105269060D01*
X72774271Y105273502D01*
X72740281Y105277959D01*
X72706252Y105282441D01*
X72687427Y105284930D01*
D11*
%TO.C,R13*%
X129717258Y60622500D02*
X129242742Y60622500D01*
X129717258Y59577500D02*
X129242742Y59577500D01*
%TO.C,REF\u002A\u002A*%
X128870000Y118847936D02*
X128870000Y120302064D01*
X130690000Y118847936D02*
X130690000Y120302064D01*
%TO.C,D2*%
X76070000Y62497680D02*
X78755000Y62497680D01*
D14*
X76833760Y63767400D02*
X76833760Y63167960D01*
X76833760Y63167960D02*
X77133480Y63467680D01*
X76932820Y63668340D02*
X76932820Y63267020D01*
X77031880Y63368620D02*
X77031880Y63566740D01*
X77133480Y63467680D02*
X76833760Y63767400D01*
X77230940Y63767400D02*
X77230940Y63167960D01*
D11*
X78755000Y64417680D02*
X76070000Y64417680D01*
X78755000Y62497680D02*
X78755000Y64417680D01*
%TO.C,C22*%
X69938748Y55115000D02*
X70461252Y55115000D01*
X69938748Y53645000D02*
X70461252Y53645000D01*
%TO.C,R6*%
X82652936Y146610000D02*
X83107064Y146610000D01*
X82652936Y145140000D02*
X83107064Y145140000D01*
%TO.C,REF\u002A\u002A*%
X105037064Y150270000D02*
X103582936Y150270000D01*
X105037064Y148450000D02*
X103582936Y148450000D01*
%TO.C,R12*%
X129717258Y62247500D02*
X129242742Y62247500D01*
X129717258Y61202500D02*
X129242742Y61202500D01*
%TO.C,C21*%
X69938748Y53055000D02*
X70461252Y53055000D01*
X69938748Y51585000D02*
X70461252Y51585000D01*
%TO.C,ST1*%
X56102500Y56725000D02*
X56102500Y57525000D01*
X56102500Y56725000D02*
X56102500Y55925000D01*
X59222500Y56725000D02*
X59222500Y57525000D01*
X59222500Y56725000D02*
X59222500Y55925000D01*
X56177500Y55425000D02*
X55847500Y55185000D01*
X55847500Y55665000D01*
X56177500Y55425000D01*
G36*
X56177500Y55425000D02*
G01*
X55847500Y55185000D01*
X55847500Y55665000D01*
X56177500Y55425000D01*
G37*
%TO.C,J4*%
X71920000Y111735000D02*
X71920000Y105765000D01*
X71920000Y105765000D02*
X82040000Y105765000D01*
X71930000Y108025000D02*
X72680000Y108025000D01*
X71930000Y106525000D02*
X71930000Y105775000D01*
X71930000Y105775000D02*
X73730000Y105775000D01*
X72680000Y110975000D02*
X76980000Y110975000D01*
X72680000Y108025000D02*
X72680000Y110975000D01*
X73730000Y106525000D02*
X71930000Y106525000D01*
X73730000Y105775000D02*
X73730000Y106525000D01*
X75230000Y106525000D02*
X75230000Y105775000D01*
X75230000Y105775000D02*
X78730000Y105775000D01*
X78730000Y106525000D02*
X75230000Y106525000D01*
X78730000Y105775000D02*
X78730000Y106525000D01*
X80230000Y106525000D02*
X80230000Y105775000D01*
X80230000Y105775000D02*
X82030000Y105775000D01*
X81080000Y105475000D02*
X82330000Y105475000D01*
X81280000Y110975000D02*
X76980000Y110975000D01*
X81280000Y108025000D02*
X81280000Y110975000D01*
X82030000Y108025000D02*
X81280000Y108025000D01*
X82030000Y106525000D02*
X80230000Y106525000D01*
X82030000Y105775000D02*
X82030000Y106525000D01*
X82040000Y111735000D02*
X71920000Y111735000D01*
X82040000Y105765000D02*
X82040000Y111735000D01*
X82330000Y105475000D02*
X82330000Y106725000D01*
%TO.C,SW1*%
D13*
X78455000Y50880000D02*
X82455000Y50880000D01*
X82455000Y59880000D01*
X78455000Y59880000D01*
X78455000Y50880000D01*
D11*
%TO.C,J12*%
X98445000Y93575000D02*
X99865000Y93575000D01*
X98445000Y81855000D02*
X98445000Y93575000D01*
X99865000Y93575000D02*
X99865000Y89075000D01*
X99865000Y89075000D02*
X102255000Y89075000D01*
X100705000Y93265000D02*
X101305000Y93265000D01*
X100755000Y87965000D02*
X100755000Y82465000D01*
X100755000Y82465000D02*
X101255000Y82465000D01*
X101005000Y92665000D02*
X100705000Y93265000D01*
X101255000Y87965000D02*
X100755000Y87965000D01*
X101255000Y82465000D02*
X101255000Y87965000D01*
X101305000Y93265000D02*
X101005000Y92665000D01*
X102255000Y81855000D02*
X98445000Y81855000D01*
X102255000Y81855000D02*
X106065000Y81855000D01*
X103255000Y87965000D02*
X103255000Y82465000D01*
X103255000Y82465000D02*
X103755000Y82465000D01*
X103755000Y87965000D02*
X103255000Y87965000D01*
X103755000Y82465000D02*
X103755000Y87965000D01*
X104645000Y93575000D02*
X104645000Y89075000D01*
X104645000Y89075000D02*
X102255000Y89075000D01*
X106065000Y93575000D02*
X104645000Y93575000D01*
X106065000Y81855000D02*
X106065000Y93575000D01*
%TO.C,SW2*%
X71810000Y147080000D02*
X77930000Y147080000D01*
X71810000Y143380000D02*
X71810000Y147080000D01*
X77930000Y147080000D02*
X77930000Y143380000D01*
X77930000Y143380000D02*
X71810000Y143380000D01*
%TO.C,D7*%
X129295000Y111575000D02*
X129295000Y108275000D01*
X129295000Y111575000D02*
X134805000Y111575000D01*
X129295000Y108275000D02*
X134805000Y108275000D01*
%TO.C,R16*%
X53557258Y53902500D02*
X53082742Y53902500D01*
X53557258Y52857500D02*
X53082742Y52857500D01*
%TO.C,R5*%
X76982936Y150695000D02*
X77437064Y150695000D01*
X76982936Y149225000D02*
X77437064Y149225000D01*
%TO.C,J10*%
X82910000Y93575000D02*
X84330000Y93575000D01*
X82910000Y81855000D02*
X82910000Y93575000D01*
X84330000Y93575000D02*
X84330000Y89075000D01*
X84330000Y89075000D02*
X86720000Y89075000D01*
X85170000Y93265000D02*
X85770000Y93265000D01*
X85220000Y87965000D02*
X85220000Y82465000D01*
X85220000Y82465000D02*
X85720000Y82465000D01*
X85470000Y92665000D02*
X85170000Y93265000D01*
X85720000Y87965000D02*
X85220000Y87965000D01*
X85720000Y82465000D02*
X85720000Y87965000D01*
X85770000Y93265000D02*
X85470000Y92665000D01*
X86720000Y81855000D02*
X82910000Y81855000D01*
X86720000Y81855000D02*
X90530000Y81855000D01*
X87720000Y87965000D02*
X87720000Y82465000D01*
X87720000Y82465000D02*
X88220000Y82465000D01*
X88220000Y87965000D02*
X87720000Y87965000D01*
X88220000Y82465000D02*
X88220000Y87965000D01*
X89110000Y93575000D02*
X89110000Y89075000D01*
X89110000Y89075000D02*
X86720000Y89075000D01*
X90530000Y93575000D02*
X89110000Y93575000D01*
X90530000Y81855000D02*
X90530000Y93575000D01*
%TO.C,C19*%
X59627500Y57440580D02*
X59627500Y57159420D01*
X60647500Y57440580D02*
X60647500Y57159420D01*
%TO.C,J5*%
X106955000Y112025000D02*
X106955000Y110775000D01*
X107245000Y111735000D02*
X107245000Y105765000D01*
X107245000Y105765000D02*
X117365000Y105765000D01*
X107255000Y111725000D02*
X107255000Y110975000D01*
X107255000Y110975000D02*
X109055000Y110975000D01*
X107255000Y109475000D02*
X108005000Y109475000D01*
X108005000Y109475000D02*
X108005000Y106525000D01*
X108005000Y106525000D02*
X112305000Y106525000D01*
X108205000Y112025000D02*
X106955000Y112025000D01*
X109055000Y111725000D02*
X107255000Y111725000D01*
X109055000Y110975000D02*
X109055000Y111725000D01*
X110555000Y111725000D02*
X110555000Y110975000D01*
X110555000Y110975000D02*
X114055000Y110975000D01*
X114055000Y111725000D02*
X110555000Y111725000D01*
X114055000Y110975000D02*
X114055000Y111725000D01*
X115555000Y111725000D02*
X115555000Y110975000D01*
X115555000Y110975000D02*
X117355000Y110975000D01*
X116605000Y109475000D02*
X116605000Y106525000D01*
X116605000Y106525000D02*
X112305000Y106525000D01*
X117355000Y111725000D02*
X115555000Y111725000D01*
X117355000Y110975000D02*
X117355000Y111725000D01*
X117355000Y109475000D02*
X116605000Y109475000D01*
X117365000Y111735000D02*
X107245000Y111735000D01*
X117365000Y105765000D02*
X117365000Y111735000D01*
%TO.C,R8*%
X111905000Y144177064D02*
X111905000Y143722936D01*
X113375000Y144177064D02*
X113375000Y143722936D01*
%TO.C,C3*%
X52666252Y137860000D02*
X52143748Y137860000D01*
X52666252Y136390000D02*
X52143748Y136390000D01*
%TO.C,C7*%
X74593748Y141285000D02*
X75116252Y141285000D01*
X74593748Y139815000D02*
X75116252Y139815000D01*
%TO.C,Rt1*%
X54837500Y58262742D02*
X54837500Y58737258D01*
X55882500Y58262742D02*
X55882500Y58737258D01*
%TO.C,SW4*%
X60695000Y147075000D02*
X66815000Y147075000D01*
X60695000Y143375000D02*
X60695000Y147075000D01*
X66815000Y147075000D02*
X66815000Y143375000D01*
X66815000Y143375000D02*
X60695000Y143375000D01*
%TD*%
M02*
