M48
; DRILL file {KiCad 9.0.1} date 2025-07-10T18:56:11-0300
; FORMAT={-:-/ absolute / metric / decimal}
; #@! TF.CreationDate,2025-07-10T18:56:11-03:00
; #@! TF.GenerationSoftware,Kicad,Pcbnew,9.0.1
; #@! TF.FileFunction,Plated,1,2,PTH
FMAT,2
METRIC
; #@! TA.AperFunction,Plated,PTH,ViaDrill
T1C0.550
; #@! TA.AperFunction,Plated,PTH,ViaDrill
T2C0.700
; #@! TA.AperFunction,Plated,PTH,ComponentDrill
T3C0.700
; #@! TA.AperFunction,Plated,PTH,ComponentDrill
T4C0.750
; #@! TA.AperFunction,Plated,PTH,ComponentDrill
T5C0.762
; #@! TA.AperFunction,Plated,PTH,ComponentDrill
T6C0.950
; #@! TA.AperFunction,Plated,PTH,ComponentDrill
T7C1.000
; #@! TA.AperFunction,Plated,PTH,ComponentDrill
T8C1.200
; #@! TA.AperFunction,Plated,PTH,ComponentDrill
T9C2.500
%
G90
G05
T1
X56.95Y60.6
X59.587Y52.36
X59.787Y54.7
T2
X51.02Y54.75
X51.055Y131.925
X51.055Y129.737
X51.055Y127.55
X51.055Y125.362
X51.055Y123.175
X51.055Y120.987
X51.055Y118.8
X51.08Y115.15
X52.96Y54.93
X63.855Y140.575
X64.6Y150.48
X67.73Y141.0
X72.98Y63.225
X73.405Y53.425
X73.419Y56.611
X74.73Y124.12
X75.31Y66.88
X75.38Y112.95
X75.605Y128.175
X75.62Y126.02
X75.855Y130.875
X80.535Y66.31
X82.58Y75.99
X82.755Y68.425
X84.955Y66.325
X87.11Y64.26
X87.155Y68.425
X89.33Y66.325
X89.355Y66.325
X91.53Y68.425
X91.53Y64.275
X93.68Y66.675
X96.08Y69.65
X100.31Y60.95
X100.31Y59.39
X100.355Y69.425
X101.88Y60.95
X101.88Y59.39
X102.63Y67.075
X103.48Y60.95
X103.48Y59.39
X105.205Y70.9
X108.105Y68.975
X109.55Y142.33
X113.76Y51.4
X113.88Y64.6
X113.88Y58.45
X113.88Y56.817
X114.68Y63.3
X115.26Y51.4
X115.28Y58.45
X115.28Y56.817
X115.28Y55.183
X115.28Y53.55
X115.32Y60.47
X115.55Y61.9
X115.63Y64.5
X116.26Y63.15
X116.76Y51.4
X117.64Y63.79
X117.805Y129.8
X118.26Y51.4
X119.11Y63.76
X119.76Y51.4
X119.88Y145.11
X120.75Y63.54
X121.96Y62.65
X122.82Y116.41
X123.13Y113.85
X124.79Y73.08
X125.78Y109.175
X126.38Y138.0
X126.53Y61.675
X126.705Y59.525
X129.955Y146.275
X130.73Y113.775
X134.68Y61.25
X136.08Y138.6
X136.38Y59.725
T3
X51.68Y139.875
X61.305Y150.675
X85.705Y77.575
X94.505Y77.575
X103.305Y77.575
X133.75Y144.27
X137.555Y61.575
T4
X108.72Y147.995
X108.72Y145.92
X121.805Y109.75
X121.805Y107.675
T5
X58.0Y110.2
X60.54Y110.2
X63.08Y110.2
X80.455Y57.92
X80.455Y55.38
X80.455Y52.84
T6
X74.48Y108.225
X76.98Y108.225
X79.48Y108.225
X83.24Y154.43
X85.74Y154.43
X88.24Y154.43
X90.74Y154.43
X93.24Y154.43
X95.74Y154.43
X98.24Y154.43
X100.74Y154.43
X103.24Y154.43
X105.74Y154.43
X109.805Y109.275
X112.305Y109.275
X114.805Y109.275
X129.435Y133.25
X129.435Y130.75
X129.435Y128.25
X129.435Y125.75
T7
X85.47Y91.165
X87.97Y91.165
X93.237Y91.165
X95.737Y91.165
X101.005Y91.165
X103.505Y91.165
X115.005Y137.925
X115.44Y126.65
X117.98Y126.65
X120.52Y126.65
X122.605Y137.925
X123.06Y126.65
T8
X51.41Y60.695
X51.41Y51.555
X66.65Y51.555
X84.92Y53.86
X88.42Y53.86
X91.005Y99.9
X91.92Y53.86
X94.505Y99.9
X95.42Y53.86
X98.005Y99.9
X98.92Y53.86
X102.42Y53.86
T9
X118.88Y60.05
X118.88Y55.05
M30
