%TF.GenerationSoftware,KiCad,Pcbnew,9.0.1*%
%TF.CreationDate,2025-07-10T18:56:07-03:00*%
%TF.ProjectId,main_MagicAlonso-rounded,6d61696e-5f4d-4616-9769-63416c6f6e73,rev?*%
%TF.SameCoordinates,PXb76920PY11322920*%
%TF.FileFunction,Profile,NP*%
%FSLAX46Y46*%
G04 Gerber Fmt 4.6, Leading zero omitted, Abs format (unit mm)*
G04 Created by KiCad (PCBNEW 9.0.1) date 2025-07-10 18:56:07*
%MOMM*%
%LPD*%
G01*
G04 APERTURE LIST*
%TA.AperFunction,Profile*%
%ADD10C,0.100000*%
%TD*%
G04 APERTURE END LIST*
D10*
X92119914Y130660843D02*
X86513318Y136267438D01*
X51980000Y50500000D02*
X136980000Y50500000D01*
X102284436Y114567502D02*
G75*
G02*
X86662499Y114567505I-7810966J11618468D01*
G01*
X51980000Y50500000D02*
G75*
G02*
X49980000Y52500000I0J2000000D01*
G01*
X92291486Y123003988D02*
G75*
G02*
X90291486Y123003988I-1000000J0D01*
G01*
X90291486Y123003988D02*
G75*
G02*
X92291486Y123003988I1000000J0D01*
G01*
X96827020Y130660843D02*
X102433616Y136267438D01*
X89998593Y123832416D02*
X84391998Y118225820D01*
X98655448Y129367950D02*
G75*
G02*
X96655448Y129367950I-1000000J0D01*
G01*
X96655448Y129367950D02*
G75*
G02*
X98655448Y129367950I1000000J0D01*
G01*
X84391998Y118225820D02*
G75*
G02*
X82855015Y118375010I-707098J707080D01*
G01*
X89998593Y128539522D02*
G75*
G02*
X90973462Y126185969I-2353493J-2353522D01*
G01*
X86513318Y136267438D02*
G75*
G02*
X86662531Y137804387I707182J707062D01*
G01*
X96827020Y130660843D02*
G75*
G02*
X94473467Y129685965I-2353520J2353457D01*
G01*
X92119914Y121711095D02*
X86513318Y116104500D01*
X80490000Y163740000D02*
X59935203Y151849094D01*
X98948341Y123832416D02*
G75*
G02*
X97973447Y126185969I2353559J2353584D01*
G01*
X98655448Y123003988D02*
G75*
G02*
X96655448Y123003988I-1000000J0D01*
G01*
X96655448Y123003988D02*
G75*
G02*
X98655448Y123003988I1000000J0D01*
G01*
X94473467Y122685969D02*
G75*
G02*
X96827004Y121711079I33J-3328269D01*
G01*
X102284436Y137804436D02*
G75*
G02*
X102433664Y136267390I-557936J-829936D01*
G01*
X86662498Y137804436D02*
G75*
G02*
X102284438Y137804438I7810972J-11618456D01*
G01*
X96827020Y121711095D02*
X102433616Y116104500D01*
X49950100Y134529905D02*
G75*
G02*
X59935200Y151849099I20000000J7295D01*
G01*
X138980000Y52500000D02*
X138950093Y134549398D01*
X102433616Y116104500D02*
G75*
G02*
X102284430Y114567510I-707116J-707100D01*
G01*
X98948341Y128539522D02*
X104554936Y134146118D01*
X104554936Y134146118D02*
G75*
G02*
X106091892Y133996910I707064J-707218D01*
G01*
X96973467Y126185969D02*
G75*
G02*
X91973467Y126185969I-2500000J0D01*
G01*
X91973467Y126185969D02*
G75*
G02*
X96973467Y126185969I2500000J0D01*
G01*
X80490000Y163740000D02*
X108490000Y163740000D01*
X98948341Y123832416D02*
X104554936Y118225820D01*
X106091934Y118375000D02*
G75*
G02*
X104554886Y118225770I-829934J557900D01*
G01*
X89998593Y128539522D02*
X84391998Y134146118D01*
X92119914Y121711095D02*
G75*
G02*
X94473467Y122685950I2353586J-2353695D01*
G01*
X86662498Y114567502D02*
G75*
G02*
X86513318Y116104500I558002J829898D01*
G01*
X49980000Y52500000D02*
X49950100Y134529905D01*
X108490000Y163740000D02*
X128991075Y151838891D01*
X128991075Y151838891D02*
G75*
G02*
X138950103Y134549398I-10040975J-17296791D01*
G01*
X94473467Y129685969D02*
G75*
G02*
X92119909Y130660838I33J3328531D01*
G01*
X97973467Y126185969D02*
G75*
G02*
X98948345Y128539518I3328333J31D01*
G01*
X138980000Y52500000D02*
G75*
G02*
X136980000Y50500000I-2000000J0D01*
G01*
X82855000Y118375000D02*
G75*
G02*
X82854999Y133996939I11618470J7810970D01*
G01*
X92291486Y129367950D02*
G75*
G02*
X90291486Y129367950I-1000000J0D01*
G01*
X90291486Y129367950D02*
G75*
G02*
X92291486Y129367950I1000000J0D01*
G01*
X82855000Y133996938D02*
G75*
G02*
X84391996Y134146116I829900J-558038D01*
G01*
X106091934Y133996938D02*
G75*
G02*
X106091933Y118375000I-11618464J-7810968D01*
G01*
X90973467Y126185969D02*
G75*
G02*
X89998607Y123832402I-3328567J31D01*
G01*
%TO.C,REF\u002A\u002A*%
X130000000Y78120738D02*
X117300000Y78120738D01*
X117300000Y92320738D01*
X130000000Y92320738D01*
X130000000Y78120738D01*
X58980000Y92324998D02*
X71680000Y92324998D01*
X71680000Y78124998D01*
X58980000Y78124998D01*
X58980000Y92324998D01*
%TD*%
M02*
