0
SECTION
2
HEADER
9
$INSUNITS
70
4
9
$ACADVER
1
AC1014
9
$HANDSEED
5
FFFF
0
ENDSEC
0
SECTION
2
TABLES
0
TABLE
2
VPORT
5
8
100
AcDbSymbolTable
0
ENDTAB
0
TABLE
2
LTYPE
5
5
100
AcDbSymbolTable
0
LTYPE
5
14
100
AcDbSymbolTableRecord
100
AcDbLinetypeTableRecord
2
BYBLOCK
70
0
0
LTYPE
5
15
100
AcDbSymbolTableRecord
100
AcDbLinetypeTableRecord
2
BYLAYER
70
0
0
LTYPE
5
16
100
AcDbSymbolTableRecord
100
AcDbLinetypeTableRecord
2
DASHED
70
0
3
Dashed __ __ __ __ __ __ __ __ __ __ __ __ __ _
72
65
73
2
40
0.75
49
0.5
74
0
49
-0.25
74
0
0
ENDTAB
0
TABLE
2
LAYER
5
2
100
AcDbSymbolTable
70
2
0
LAYER
5
50
100
AcDbSymbolTableRecord
100
AcDbLayerTableRecord
2
0
70
0
62
7
6
CONTINUOUS
0
ENDTAB
0
TABLE
2
STYLE
5
3
100
AcDbSymbolTable
70
1
0
STYLE
5
11
100
AcDbSymbolTableRecord
100
AcDbTextStyleTableRecord
2
STANDARD
70
0
0
ENDTAB
0
TABLE
2
VIEW
5
6
100
AcDbSymbolTable
70
0
0
ENDTAB
0
TABLE
2
UCS
5
7
100
AcDbSymbolTable
70
0
0
ENDTAB
0
TABLE
2
APPID
5
9
100
AcDbSymbolTable
70
2
0
APPID
5
12
100
AcDbSymbolTableRecord
100
AcDbRegAppTableRecord
2
ACAD
70
0
0
ENDTAB
0
TABLE
2
DIMSTYLE
5
A
100
AcDbSymbolTable
70
1
0
ENDTAB
0
TABLE
2
BLOCK_RECORD
5
1
100
AcDbSymbolTable
70
1
0
BLOCK_RECORD
5
1F
100
AcDbSymbolTableRecord
100
AcDbBlockTableRecord
2
*MODEL_SPACE
0
BLOCK_RECORD
5
1B
100
AcDbSymbolTableRecord
100
AcDbBlockTableRecord
2
*PAPER_SPACE
0
ENDTAB
0
ENDSEC
0
SECTION
2
BLOCKS
0
BLOCK
5
20
100
AcDbEntity
100
AcDbBlockBegin
2
*MODEL_SPACE
0
ENDBLK
5
21
100
AcDbEntity
100
AcDbBlockEnd
0
BLOCK
5
1C
100
AcDbEntity
100
AcDbBlockBegin
2
*PAPER_SPACE
0
ENDBLK
5
1D
100
AcDbEntity
100
AcDbBlockEnd
0
ENDSEC
0
SECTION
2
ENTITIES
0
POINT
5
100
100
AcDbEntity
8
0
100
AcDbPoint
10
-23.970737261372218
20
64.800000000001447
30
0
0
POINT
5
101
100
AcDbEntity
8
0
100
AcDbPoint
10
23.970737261372214
20
64.800000000001404
30
0
0
POINT
5
102
100
AcDbEntity
8
0
100
AcDbPoint
10
-25.220737261372221
20
45.300000000001404
30
0
0
POINT
5
103
100
AcDbEntity
8
0
100
AcDbPoint
10
25.220737261372214
20
45.300000000001397
30
0
0
LWPOLYLINE
5
104
100
AcDbEntity
8
0
100
AcDbPolyline
90
4
70
1
43
0.0
10
-22.820737261356534
20
34.300000000000018
10
22.820737261372201
20
34.300000000000011
10
22.820737261372201
20
39.300000000000018
10
-22.820737261356534
20
39.300000000000026
0
LINE
5
105
100
AcDbEntity
8
0
100
AcDbLine
10
-19.600000000000009
20
10.10000000000003
30
0
11
-16.60000000000003
21
10.10000000000003
31
0
0
LINE
5
106
100
AcDbEntity
8
0
100
AcDbLine
10
-16.60000000000003
20
10.10000000000003
30
0
11
-16.60000000000003
21
13.100000000000026
31
3.3881317890172014e-20
0
LINE
5
107
100
AcDbEntity
8
0
100
AcDbLine
10
-16.60000000000003
20
13.100000000000026
30
3.3881317890172014e-20
11
-13.900935662102263
21
25.376834962638696
31
-2.2204460492503131e-15
0
ARC
5
108
100
AcDbEntity
8
0
100
AcDbCircle
10
-18.100000000000009
20
26.300000000000018
30
0
40
4.2993458804812352
210
5.0441280603500142e-16
220
-1.1090565576708777e-16
230
1
100
AcDbArc
50
-12.399230332964537
51
21.265167909169794
0
LINE
5
109
100
AcDbEntity
8
0
100
AcDbLine
10
-14.093388461552738
20
27.859307211546426
30
0
11
-16.60000000000003
21
34.300000000000018
31
-2.2204460492503131e-15
0
LINE
5
110
100
AcDbEntity
8
0
100
AcDbLine
10
-16.60000000000003
20
34.300000000000018
30
-2.2204460492503131e-15
11
-19.600000000000009
21
34.300000000000026
31
-2.2204460492503131e-15
0
LINE
5
111
100
AcDbEntity
8
0
100
AcDbLine
10
-19.600000000000009
20
34.300000000000026
30
-2.2204460492503131e-15
11
-22.106611538449652
21
27.859307211540841
31
-2.2205138118860934e-15
0
ARC
5
112
100
AcDbEntity
8
0
100
AcDbCircle
10
-18.100000000000009
20
26.300000000000018
30
0
40
4.2993458804800797
210
-4.8132091782873158e-16
220
1.8729334838882661e-16
230
1
100
AcDbArc
50
158.73483209091108
51
200.0000842245199
0
LINE
5
113
100
AcDbEntity
8
0
100
AcDbLine
10
16.600000000000001
20
10.10000000000003
30
0
11
19.600000000000001
21
10.10000000000003
31
0
0
ARC
5
114
100
AcDbEntity
8
0
100
AcDbCircle
10
18.100000000000001
20
26.300000000000018
30
0
40
4.2993458804658857
210
-1.9751024137400196e-17
220
-5.428561027250843e-17
230
1
100
AcDbArc
50
-19.999896543459467
51
21.265167908922315
0
LINE
5
115
100
AcDbEntity
8
0
100
AcDbLine
10
22.106611538440951
20
27.85930721152404
30
-2.1898674423778033e-20
11
19.600000000000001
21
34.300000000000018
31
-2.2204460492503131e-15
0
LINE
5
116
100
AcDbEntity
8
0
100
AcDbLine
10
19.600000000000001
20
34.300000000000018
30
-2.2204460492503131e-15
11
16.600000000000001
21
34.300000000000026
31
-2.2204460492503131e-15
0
LINE
5
117
100
AcDbEntity
8
0
100
AcDbLine
10
16.600000000000001
20
34.300000000000026
30
-2.2204460492503131e-15
11
14.093388461554506
21
27.859307211535306
31
-2.2205138118860934e-15
0
ARC
5
118
100
AcDbEntity
8
0
100
AcDbCircle
10
18.100000000000001
20
26.300000000000018
30
0
40
4.2993458804742071
210
-4.8131117552009305e-16
220
1.8731838107574457e-16
230
1
100
AcDbArc
50
158.73483209095974
51
192.39923033289293
0
LINE
5
119
100
AcDbEntity
8
0
100
AcDbLine
10
13.900935662116092
20
25.376834962647237
30
3.229899391041292e-20
11
16.600000000000001
21
13.100000000000025
31
-2.2204460492503131e-15
0
LINE
5
120
100
AcDbEntity
8
0
100
AcDbLine
10
16.600000000000001
20
13.100000000000025
30
-2.2204460492503131e-15
11
16.600000000000001
21
10.10000000000003
31
0
0
CIRCLE
5
121
100
AcDbEntity
8
0
100
AcDbCircle
10
18.100000000000001
20
26.300000000000018
30
0
40
1.625
210
0
220
0
230
1
0
CIRCLE
5
122
100
AcDbEntity
8
0
100
AcDbCircle
10
-18.100000000000009
20
26.300000000000018
30
0
40
1.625
210
0
220
0
230
1
0
LINE
5
123
100
AcDbEntity
8
0
100
AcDbLine
10
-16.60000000000003
20
10.10000000000003
30
0
11
16.600000000000001
21
10.10000000000003
31
0
0
LINE
5
124
100
AcDbEntity
8
0
100
AcDbLine
10
-25.220737261372218
20
64.800000000001447
30
0
11
25.220737261372218
21
64.800000000001404
31
0
0
LINE
5
125
100
AcDbEntity
8
0
100
AcDbLine
10
25.220737261372218
20
64.800000000001404
30
0
11
25.220737261372214
21
39.300000000000018
31
0
0
LINE
5
126
100
AcDbEntity
8
0
100
AcDbLine
10
-25.220737261372218
20
64.800000000001447
30
0
11
-25.220737261372221
21
39.300000000000026
31
0
0
LINE
5
127
100
AcDbEntity
8
0
100
AcDbLine
10
-25.220737261372221
20
39.300000000000026
30
0
11
-22.820737261356534
21
39.300000000000026
31
0
0
LINE
5
128
100
AcDbEntity
8
0
100
AcDbLine
10
25.220737261372214
20
39.300000000000018
30
0
11
22.820737261372201
21
39.300000000000018
31
0
0
LINE
5
129
100
AcDbEntity
8
0
100
AcDbLine
10
-16.60000000000003
20
13.100000000000026
30
3.3881317890172014e-20
11
16.600000000000001
21
13.100000000000025
31
-2.2204460492503131e-15
0
LWPOLYLINE
5
130
100
AcDbEntity
8
0
100
AcDbPolyline
90
4
70
1
43
0.0
10
-9.6000000000000281
20
31.300000000000018
10
9.6000000000000014
20
31.300000000000018
10
9.6000000000000014
20
17.600000000000023
10
-9.6000000000000281
20
17.600000000000023
0
SPLINE
5
131
100
AcDbEntity
8
0
100
AcDbSpline
70
4
71
5
72
16
73
10
74
0
42
0.000000001
43
0.0000000001
44
0.0000000001
40
0
40
0
40
0
40
0
40
0
40
0
40
0.20000000000000001
40
0.40000000000000002
40
0.60000000000000009
40
0.80000000000000004
40
1
40
1
40
1
40
1
40
1
40
1
41
1
41
1
41
1
41
1
41
1
41
1
41
1
41
1
41
1
41
1
10
-19.600000000000009
20
10.100000000000025
30
0
10
-19.600000000000009
20
10.490740478813036
30
-2.2204460492503131e-15
10
-19.611837680757297
20
11.318498923470901
30
-2.2204460492503131e-15
10
-19.665092251355468
20
12.698855235840842
30
0
10
-19.811974611158696
20
14.788082069857122
30
0
10
-20.183600420726904
20
17.74342589608019
30
-2.2204460492503131e-15
10
-20.725899568952993
20
20.376204476994815
30
-2.2204460492503131e-15
10
-21.339600977166896
20
22.52696777902424
30
-2.2204460492503131e-15
10
-21.855440983042904
20
24.04754289783417
30
-2.2204460492503131e-15
10
-22.140061436520053
20
24.82953116687758
30
-2.2204460492503131e-15
0
SPLINE
5
132
100
AcDbEntity
8
0
100
AcDbSpline
70
4
71
5
72
16
73
10
74
0
42
0.000000001
43
0.0000000001
44
0.0000000001
40
0
40
0
40
0
40
0
40
0
40
0
40
0.20000000000000001
40
0.40000000000000002
40
0.60000000000000009
40
0.80000000000000004
40
1
40
1
40
1
40
1
40
1
40
1
41
1
41
1
41
1
41
1
41
1
41
1
41
1
41
1
41
1
41
1
10
19.600000000000001
20
10.100000000000032
30
0
10
19.600000000000001
20
10.491490213928794
30
0
10
19.611760970397214
20
11.320260071889496
30
0
10
19.66467062445227
20
12.700670906944788
30
-2.2204460492503131e-15
10
19.81076003732715
20
14.787670655995701
30
0
10
20.181472620195208
20
17.739249463881055
30
-2.2204460492503131e-15
10
20.723737517890349
20
20.370843870932521
30
-2.2204460492503131e-15
10
21.338169353373296
20
22.52313987322168
30
0
10
21.854899691158415
20
24.046055710603902
30
0
10
22.140066253245529
20
24.829544400721755
30
0
0
ENDSEC
0
SECTION
2
OBJECTS
0
DICTIONARY
5
C
100
AcDbDictionary
3
ACAD_GROUP
350
D
3
ACAD_MLINESTYLE
350
17
0
DICTIONARY
5
D
100
AcDbDictionary
0
DICTIONARY
5
1A
330
C
100
AcDbDictionary
0
DICTIONARY
5
17
100
AcDbDictionary
0
ENDSEC
0
EOF
