0
SECTION
2
HEADER
9
$INSUNITS
70
4
9
$ACADVER
1
AC1014
9
$HANDSEED
5
FFFF
0
ENDSEC
0
SECTION
2
TABLES
0
TABLE
2
VPORT
5
8
100
AcDbSymbolTable
0
ENDTAB
0
TABLE
2
LTYPE
5
5
100
AcDbSymbolTable
0
LTYPE
5
14
100
AcDbSymbolTableRecord
100
AcDbLinetypeTableRecord
2
BYBLOCK
70
0
0
LTYPE
5
15
100
AcDbSymbolTableRecord
100
AcDbLinetypeTableRecord
2
BYLAYER
70
0
0
LTYPE
5
16
100
AcDbSymbolTableRecord
100
AcDbLinetypeTableRecord
2
DASHED
70
0
3
Dashed __ __ __ __ __ __ __ __ __ __ __ __ __ _
72
65
73
2
40
0.75
49
0.5
74
0
49
-0.25
74
0
0
ENDTAB
0
TABLE
2
LAYER
5
2
100
AcDbSymbolTable
70
2
0
LAYER
5
50
100
AcDbSymbolTableRecord
100
AcDbLayerTableRecord
2
0
70
0
62
7
6
CONTINUOUS
0
ENDTAB
0
TABLE
2
STYLE
5
3
100
AcDbSymbolTable
70
1
0
STYLE
5
11
100
AcDbSymbolTableRecord
100
AcDbTextStyleTableRecord
2
STANDARD
70
0
0
ENDTAB
0
TABLE
2
VIEW
5
6
100
AcDbSymbolTable
70
0
0
ENDTAB
0
TABLE
2
UCS
5
7
100
AcDbSymbolTable
70
0
0
ENDTAB
0
TABLE
2
APPID
5
9
100
AcDbSymbolTable
70
2
0
APPID
5
12
100
AcDbSymbolTableRecord
100
AcDbRegAppTableRecord
2
ACAD
70
0
0
ENDTAB
0
TABLE
2
DIMSTYLE
5
A
100
AcDbSymbolTable
70
1
0
ENDTAB
0
TABLE
2
BLOCK_RECORD
5
1
100
AcDbSymbolTable
70
1
0
BLOCK_RECORD
5
1F
100
AcDbSymbolTableRecord
100
AcDbBlockTableRecord
2
*MODEL_SPACE
0
BLOCK_RECORD
5
1B
100
AcDbSymbolTableRecord
100
AcDbBlockTableRecord
2
*PAPER_SPACE
0
ENDTAB
0
ENDSEC
0
SECTION
2
BLOCKS
0
BLOCK
5
20
100
AcDbEntity
100
AcDbBlockBegin
2
*MODEL_SPACE
0
ENDBLK
5
21
100
AcDbEntity
100
AcDbBlockEnd
0
BLOCK
5
1C
100
AcDbEntity
100
AcDbBlockBegin
2
*PAPER_SPACE
0
ENDBLK
5
1D
100
AcDbEntity
100
AcDbBlockEnd
0
ENDSEC
0
SECTION
2
ENTITIES
0
CIRCLE
5
100
100
AcDbEntity
8
0
100
AcDbCircle
10
-3.1819805153394638
20
3.1819805153394629
30
0
40
0.99999999999999989
210
0
220
0
230
1
0
CIRCLE
5
101
100
AcDbEntity
8
0
100
AcDbCircle
10
-3.1819805153394638
20
-3.1819805153394642
30
0
40
1
210
0
220
0
230
1
0
CIRCLE
5
102
100
AcDbEntity
8
0
100
AcDbCircle
10
3.1819805153394642
20
-3.1819805153394642
30
0
40
1
210
0
220
0
230
1
0
CIRCLE
5
103
100
AcDbEntity
8
0
100
AcDbCircle
10
3.1819805153394642
20
3.1819805153394629
30
0
40
1
210
0
220
0
230
1
0
CIRCLE
5
104
100
AcDbEntity
8
0
100
AcDbCircle
10
0
20
0
30
0
40
2.4999999999999996
210
0
220
0
230
1
0
ARC
5
105
100
AcDbEntity
8
0
100
AcDbCircle
10
2.0102366124816928e-15
20
-6.8284271247461792
30
0
40
3.3284271247461801
210
0
220
-0
230
1
100
AcDbArc
50
44.999999999999986
51
90.000000000000043
0
ARC
5
106
100
AcDbEntity
8
0
100
AcDbCircle
10
6.8284271247461872
20
0
30
0
40
3.3284271247461872
210
0
220
0
230
1
100
AcDbArc
50
180
51
224.99999999999997
0
ARC
5
107
100
AcDbEntity
8
0
100
AcDbCircle
10
7.2530423233679722
20
-10.788576229300727
30
0
40
1.0000000000000082
210
0
220
0
230
1
100
AcDbArc
50
-56.087489210970666
51
45.000000000000071
0
ARC
5
108
100
AcDbEntity
8
0
100
AcDbCircle
10
10.788576229300729
20
-7.2530423233679899
30
0
40
1.0000000000000004
210
0
220
0
230
1
100
AcDbArc
50
224.99999999999997
51
326.0874892109706
0
LINE
5
109
100
AcDbEntity
8
0
100
AcDbLine
10
2.3535533905932691
20
-4.4748737341529132
30
0
11
7.9601491045545272
21
-10.08146944811417
31
0
0
LINE
5
110
100
AcDbEntity
8
0
100
AcDbLine
10
4.4748737341529141
20
-2.3535533905932713
30
0
11
10.081469448114181
21
-7.9601491045545369
31
0
0
ARC
5
111
100
AcDbEntity
8
0
100
AcDbCircle
10
6.8284271247461801
20
3.5264520156553264e-15
30
0
40
3.3284271247461805
210
0
220
0
230
1
100
AcDbArc
50
135
51
180
0
LINE
5
112
100
AcDbEntity
8
0
100
AcDbLine
10
2.3535533905932708
20
4.4748737341529159
30
0
11
7.9601491045545369
21
10.081469448114184
31
0
0
ARC
5
113
100
AcDbEntity
8
0
100
AcDbCircle
10
10.788576229300727
20
7.2530423233679748
30
0
40
1.0000000000000089
210
0
220
-0
230
1
100
AcDbArc
50
33.912510789029426
51
135
0
LINE
5
114
100
AcDbEntity
8
0
100
AcDbLine
10
4.4748737341529141
20
2.3535533905932708
30
0
11
10.08146944811417
21
7.9601491045545316
31
0
0
ARC
5
115
100
AcDbEntity
8
0
100
AcDbCircle
10
7.253042323367989
20
10.788576229300732
30
0
40
1.0000000000000011
210
0
220
0
230
1
100
AcDbArc
50
-45
51
56.087489210970524
0
ARC
5
116
100
AcDbEntity
8
0
100
AcDbCircle
10
-1.5162154031736346e-15
20
6.8284271247461881
30
0
40
3.3284271247461876
210
0
220
0
230
1
100
AcDbArc
50
270
51
315
0
ARC
5
117
100
AcDbEntity
8
0
100
AcDbCircle
10
-1.1739954703285558e-15
20
6.8284271247461792
30
0
40
3.3284271247461792
210
0
220
0
230
1
100
AcDbArc
50
224.99999999999997
51
270
0
LINE
5
118
100
AcDbEntity
8
0
100
AcDbLine
10
-4.4748737341529141
20
2.3535533905932722
30
0
11
-10.081469448114181
21
7.9601491045545378
31
0
0
ARC
5
119
100
AcDbEntity
8
0
100
AcDbCircle
10
-7.2530423233679713
20
10.788576229300727
30
0
40
1.0000000000000082
210
0
220
0
230
1
100
AcDbArc
50
123.91251078902933
51
225.00000000000006
0
LINE
5
120
100
AcDbEntity
8
0
100
AcDbLine
10
-2.3535533905932686
20
4.4748737341529141
30
0
11
-7.9601491045545263
21
10.08146944811417
31
0
0
ARC
5
121
100
AcDbEntity
8
0
100
AcDbCircle
10
-10.788576229300729
20
7.2530423233679908
30
0
40
1.0000000000000004
210
0
220
-0
230
1
100
AcDbArc
50
44.999999999999964
51
146.08748921097057
0
ARC
5
122
100
AcDbEntity
8
0
100
AcDbCircle
10
-6.8284271247461872
20
8.362411421531382e-16
30
0
40
3.3284271247461872
210
0
220
0
230
1
100
AcDbArc
50
0
51
44.999999999999986
0
ARC
5
123
100
AcDbEntity
8
0
100
AcDbCircle
10
-6.8284271247461792
20
-4.9402120930806009e-16
30
0
40
3.3284271247461792
210
0
220
0
230
1
100
AcDbArc
50
-45.00000000000005
51
0
0
LINE
5
124
100
AcDbEntity
8
0
100
AcDbLine
10
-2.3535533905932726
20
-4.4748737341529141
30
0
11
-7.9601491045545387
21
-10.081469448114177
31
0
0
ARC
5
125
100
AcDbEntity
8
0
100
AcDbCircle
10
-10.788576229300729
20
-7.2530423233679695
30
0
40
1.0000000000000082
210
0
220
0
230
1
100
AcDbArc
50
213.91251078902926
51
315
0
LINE
5
126
100
AcDbEntity
8
0
100
AcDbLine
10
-4.4748737341529141
20
-2.3535533905932677
30
0
11
-10.081469448114174
21
-7.9601491045545245
31
0
0
ARC
5
127
100
AcDbEntity
8
0
100
AcDbCircle
10
-7.2530423233679917
20
-10.788576229300727
30
0
40
1.0000000000000004
210
0
220
0
230
1
100
AcDbArc
50
134.99999999999991
51
236.08748921097052
0
ARC
5
128
100
AcDbEntity
8
0
100
AcDbCircle
10
-1.5162154031736346e-15
20
-6.8284271247461872
30
0
40
3.3284271247461872
210
0
220
-0
230
1
100
AcDbArc
50
89.999999999999986
51
135
0
ARC
5
129
100
AcDbEntity
8
0
100
AcDbCircle
10
0
20
0
30
0
40
14
210
0
220
0
230
1
100
AcDbArc
50
213.91251078902928
51
236.0874892109706
0
ARC
5
130
100
AcDbEntity
8
0
100
AcDbCircle
10
0
20
0
30
0
40
14
210
0
220
0
230
1
100
AcDbArc
50
303.91251078902934
51
326.0874892109706
0
ARC
5
131
100
AcDbEntity
8
0
100
AcDbCircle
10
0
20
0
30
0
40
13.999999999999996
210
0
220
0
230
1
100
AcDbArc
50
123.91251078902934
51
146.0874892109706
0
ARC
5
132
100
AcDbEntity
8
0
100
AcDbCircle
10
0
20
0
30
0
40
14.000000000000002
210
0
220
-0
230
1
100
AcDbArc
50
33.912510789029334
51
56.087489210970624
0
ENDSEC
0
SECTION
2
OBJECTS
0
DICTIONARY
5
C
100
AcDbDictionary
3
ACAD_GROUP
350
D
3
ACAD_MLINESTYLE
350
17
0
DICTIONARY
5
D
100
AcDbDictionary
0
DICTIONARY
5
1A
330
C
100
AcDbDictionary
0
DICTIONARY
5
17
100
AcDbDictionary
0
ENDSEC
0
EOF
